<svg xmlns="http://www.w3.org/2000/svg" version="1.1" xmlns:xlink="http://www.w3.org/1999/xlink" xmlns:svgjs="http://svgjs.dev/svgjs" width="500" height="500"><svg version="1.1" id="SvgjsSvg1001" xmlns="http://www.w3.org/2000/svg" xmlns:xlink="http://www.w3.org/1999/xlink" x="0px" y="0px" viewBox="0 0 500 500" style="enable-background:new 0 0 500 500;" xml:space="preserve">
<style type="text/css">
	.st0{fill:#191919;}
</style>
<path class="st0" d="M454.7,131.2C454.7,131.2,454.7,131.2,454.7,131.2c0-0.8-0.1-1.5-0.3-2.2c0-0.2-0.1-0.4-0.2-0.6
	c-0.2-0.5-0.4-1-0.6-1.5c-0.1-0.2-0.2-0.4-0.3-0.5c-0.4-0.6-0.8-1.2-1.3-1.7c0,0,0,0,0,0c-0.5-0.5-1.1-0.9-1.7-1.3
	c-0.1,0-0.1-0.1-0.2-0.2L254,10.1c-2.9-1.6-6.4-1.6-9.2,0L49.9,123.3c-2.4,1.4-3.9,3.8-4.4,6.5c-0.1,0.3-0.2,0.8-0.2,1.5v237.5
	c0,3.3,1.8,6.3,4.6,8L246,489.9c0.1,0.1,0.2,0.1,0.3,0.1c0.5,0.3,1,0.5,1.5,0.6c0.2,0.1,0.4,0.1,0.6,0.2c0.7,0.2,1.4,0.3,2.2,0.3
	c0.8,0,1.5-0.1,2.2-0.3c0.2,0,0.4-0.1,0.6-0.2c0.5-0.2,1.1-0.4,1.6-0.6c0.1-0.1,0.2-0.1,0.3-0.1l194.8-113.2c2.8-1.6,4.6-4.7,4.6-8
	V131.2C454.7,131.3,454.7,131.3,454.7,131.2C454.7,131.3,454.7,131.3,454.7,131.2z M175.6,211.8V428l-46.7-27V184.8L175.6,211.8z
	 M194.1,222.5l47.4,27.3V466l-47.4-27.3V222.5z M259.9,328.9l176.4-102.5v57.9L259.9,386.8V328.9z M436.3,205.1L259.9,307.6v-57.8
	l123-71.5c1.5-0.4,2.9-1.2,4-2.3l49.5-28.7V205.1z M183.9,66.7l177.7,102.6l-46.5,27L137.4,93.7L183.9,66.7z M249.4,28.7
	l177.7,102.6L380,158.7L202.3,56.1L249.4,28.7z M119.1,104.4L296.8,207l-46.2,26.8L72.9,131.2L119.1,104.4z M63.7,147.2l46.7,27
	v216.2l-46.7-27V147.2z M259.9,466v-57.8l176.4-102.5v57.8L259.9,466z"></path>
</svg><style>@media (prefers-color-scheme: light) { :root { filter: none; } }
@media (prefers-color-scheme: dark) { :root { filter: none; } }
</style></svg>