<svg id="Layer_1" data-name="Layer 1" xmlns="http://www.w3.org/2000/svg" viewBox="0 0 708.61 766.16"><defs><style>.cls-1{fill:#333;}</style></defs><title>illustration_1</title><path class="cls-1" d="M260.55,307.6c55.73-10.49,111.29,5.41,164.78,19.79,51.53,13.86,106.2,27.44,159.62,16.39,14.65-3,28.48-8.43,42.47-13.56,13.83-5.05,28-9.6,42.85-9.88l-1.53-2a6.53,6.53,0,0,1-5.7,5.11c-2,.21-2.07,3.12,0,3.17l10.46.22c-.51-.67-1-1.33-1.52-2a9.36,9.36,0,0,1-9.19,6.65c-1.74,0-2.22,2.8-.42,3.11l13.12,2.28c-.24-.88-.47-1.76-.7-2.64A42.49,42.49,0,0,1,659,346.13l1.92,2.48a10.75,10.75,0,0,1,11-1.53l-.69-2.64c-25.55,28.07-62.78,41.16-99.13,48.27-21.53,4.22-43.36,6.6-65,9.85-21,3.15-42.35,6.87-62.29,14.36-8.42,3.15-16.56,7.19-23.51,13-7.28,6.05-12.44,14-16.14,22.61-3.9,9.13-6.43,18.77-9.26,28.26Q391,497,386,513.11q-20.38,64.82-44.58,128.35c-7.91,20.76-16.67,41.24-23.87,62.27-6.91,20.19-12.21,41.42-11.39,62.93a112.65,112.65,0,0,0,1.66,15.21l1.94-1.94c-9-3.61-18.59-7.58-25.34-14.84-8.25-8.87-7.88-21.28-8.7-32.64l-5.58-77.77Q268.52,632.84,267,611a1.6,1.6,0,0,0-2.7-1.11A122.6,122.6,0,0,1,217,641.64a120.39,120.39,0,0,1-27.6,6.76c-7.83.94-15.74,1.2-23.42,3.1-6.36,1.58-12.84,4.38-16.72,9.91-2.14,3.06-2.58,6.74-4.36,10-1.32,2.35-2.76,2.8-4.83.84a23.14,23.14,0,0,1-3.84-4.81,29.25,29.25,0,0,1-2.92-22.57c2.33-8.58,8.35-14.33,16.24-18.05,8.45-4,17.71-6,25.46-11.47a55.84,55.84,0,0,0,16.63-19c9.94-18,10.88-38.79,10.45-58.85-.48-22.18-.82-44.21.77-66.37a530.19,530.19,0,0,1,26-130.14c2.86-8.54,6.21-16.46,11.83-23.58,2.78-3.52,6-5.21,10.24-6.53,3.93-1.21,7.93-2.18,11.91-3.18,2-.49,1.14-3.54-.84-3.05-6.16,1.55-13.49,2.63-18.94,6.14-4.11,2.64-7.35,7.55-9.78,11.64-5.39,9.07-8.25,19.74-11.33,29.75q-5.07,16.5-9.07,33.31a534.82,534.82,0,0,0-14.35,136.41c.54,22.22,2.44,45.64-6.53,66.6-3.66,8.55-9,16.52-16.31,22.39-7.71,6.22-17.26,8.55-26.16,12.46-7.85,3.46-14.45,8.6-17.86,16.66a33,33,0,0,0-1.11,22.32,29.22,29.22,0,0,0,5.19,9.81c2,2.45,4.94,5.69,8.44,4.32,3.12-1.21,4.33-5.14,5.3-8a17.67,17.67,0,0,1,6.3-9.18c6.37-4.64,14.95-5.79,22.57-6.61,9-1,17.92-1.74,26.74-4a126.19,126.19,0,0,0,50.85-26.36,122.17,122.17,0,0,0,10.54-10.19l-2.7-1.12q3,41,5.9,82l2.91,40.49c.8,11.13.69,23,8.05,32.08,7.08,8.77,18.06,13.31,28.23,17.38,1.24.49,2.13-.9,1.95-2-7.72-43.77,13.35-86.4,28.74-126.1q24.1-62.13,44.54-125.6c6.73-20.89,12.78-42,19.34-62.91,3-9.5,6.57-19.11,12.84-27,5.82-7.32,13.71-12.56,22.13-16.47,18.65-8.69,39.81-12.56,60-15.87,21.52-3.53,43.21-5.85,64.7-9.54,35.82-6.14,72.8-16.9,100.67-41.34a118,118,0,0,0,9.7-9.54,1.6,1.6,0,0,0-.7-2.64,13.83,13.83,0,0,0-14.13,2.33c-1.5,1.24.42,3.14,1.92,2.49A44.39,44.39,0,0,0,677,336.47c.68-.82.59-2.42-.69-2.64l-13.12-2.28-.42,3.11a12.59,12.59,0,0,0,12.23-9,1.59,1.59,0,0,0-1.52-2L663,323.45v3.17a9.77,9.77,0,0,0,8.75-7.44,1.59,1.59,0,0,0-1.52-2c-26.33.5-49.73,13.75-74.57,20.73-26.58,7.47-54.53,8-81.83,4.95-55.36-6.15-107.66-26.68-162.27-36.6-30.35-5.51-61.42-7.45-91.89-1.71-2,.38-1.15,3.43.84,3.05Z" transform="translate(-45.7 -16.92)"/><path class="cls-1" d="M328.68,305.15c.9-3-.36-5.75-1.09-8.6-.84-3.28.3-6.86.84-10.12.45-2.66.59-5.57,1.75-8.05a10.67,10.67,0,0,1,4.92-4.81,20,20,0,0,1,8.38-1.57,16.72,16.72,0,0,1,7.41,1.51A18.84,18.84,0,0,1,360.36,285c2.33,7.38-.2,14.92-1.35,22.28l3.05.84.15-1c.3-2-2.75-2.85-3-.84l-.15,1c-.31,2,2.73,2.85,3.05.84,1.14-7.33,3.61-14.88,1.81-22.31a22.93,22.93,0,0,0-9.6-14.06c-5.08-3.24-11.34-3.51-17.09-2.21a14.09,14.09,0,0,0-11,11.1c-.84,4.08-1.53,8.33-2,12.48a14.07,14.07,0,0,0,.75,5.64c.55,1.8,1.26,3.64.69,5.52s2.45,2.78,3.05.84Z" transform="translate(-45.7 -16.92)"/><path class="cls-1" d="M246.43,137.77a204,204,0,0,1,39.43,58.34c9.71,21.35,16.13,44.12,20.29,67.16,2.36,13.1,4,26.33,5,39.6.16,2,3.32,2,3.16,0-1.89-23.85-5.57-47.62-12.06-70.67-6.43-22.8-15.65-44.93-28.43-64.91a198.82,198.82,0,0,0-25.19-31.75c-1.42-1.46-3.66.78-2.23,2.23Z" transform="translate(-45.7 -16.92)"/><path class="cls-1" d="M177,124.85c-3.93-2.76-8.55-2.78-12.9-4.39a20.45,20.45,0,0,1-3.51-1.81c-.77-.48-2.82-1.57-2.95-2.6-.05-.46.91-.43,1.49-.44a20.57,20.57,0,0,1,4.55.6c2.72.59,5.42,1.57,8.2,1.86a1.58,1.58,0,0,0,1.36-2.38c-2.45-3.32-6.53-3.47-10.07-4.93l-.42,3.11.23,0a1.59,1.59,0,0,0,1.36-2.37c-.64-1.12-1.47-2.11-2.13-3.22s-.93-2.26.76-2.71c2.7-.72,5.92,1.32,8.13,2.65a1.59,1.59,0,0,0,1.92-2.49c-1-1.1-3-1.88-3.93-.21-1,1.94,1.28,3,2.81,2.91,1.27,0,2.2-1.76,1.12-2.7-1.56-1.33-3.87-2.49-4.82-4.38-.23-.47-.05-.93-.19-1.33,0,.07-.25.34-.28.34-.23,0,.1,0,.08,0s1.44.17,1.75.26c3.24.85,6.1,2.75,9.3,3.66a1.59,1.59,0,0,0,1.54-2.64c-1.59-1.75-2.48-4-.34-5.68,1.82-1.44,3.85-1,6-.59,6.45,1.29,12.12,4.73,17.22,8.75,1.58,1.25,3.84-1,2.24-2.23-6.38-5-14.24-10-22.65-10.12a7.72,7.72,0,0,0-6.3,3.39c-2,3-.58,6.29,1.61,8.71.52-.88,1-1.76,1.54-2.64-3.92-1.11-7.68-4.26-11.94-4-2.44.13-3.42,2.37-2.79,4.59.81,2.86,3.71,4.39,5.81,6.2.37-.9.74-1.8,1.12-2.7-.67-.12-1,.28-.92,1.21-.65.6-.71,1.09-.2,1.49l1.92-2.48c-3.32-2-8.25-4.62-12.06-2.36-4.56,2.71-.79,6.9,1,10l1.37-2.38a.86.86,0,0,0-.23,0,1.59,1.59,0,0,0-.42,3.1c2.51,1,6.45,1.13,8.18,3.48l1.37-2.38c-2-.21-4.89-1.21-7.18-1.71-2.48-.54-5.67-1.34-8.12-.3s-2.56,3.86-.94,5.77a18.35,18.35,0,0,0,6.84,4.52c4.25,1.81,9,1.65,12.92,4.39,1.67,1.17,3.25-1.57,1.6-2.73Z" transform="translate(-45.7 -16.92)"/><path class="cls-1" d="M237.64,318c2-20.12,0-40.35-3.86-60.13s-9.7-39.21-15.33-58.6c-.78-2.69-1.26-5.45-2-8.16-.7-2.51-1.48-5-2-7.53a16.26,16.26,0,0,0-1.07-3.69c-.51-1.11-1.06-2.2-1.61-3.29a51,51,0,0,1-2.81-6.64c-.65-1.92-3.7-1.1-3,.84a50.05,50.05,0,0,0,2.34,5.79,54.82,54.82,0,0,1,2.64,5.39c.39,1.12.49,2.39.77,3.55s.61,2.33.94,3.5c.67,2.33,1.37,4.66,1.84,7,1,4.88,2.65,9.67,4,14.44s2.78,9.63,4.12,14.46c5.35,19.31,10.08,38.92,11.92,58.92a180.79,180.79,0,0,1,0,34.11c-.2,2,3,2,3.16,0Z" transform="translate(-45.7 -16.92)"/><path class="cls-1" d="M266.14,612.76a40.2,40.2,0,0,0,5-3.85l.47-.38c-.36.3.15-.1.26-.18q.57-.39,1.17-.72l.69-.36.39-.18s.41-.18.17-.08q1.08-.43,2.19-.78a1.61,1.61,0,0,0,1.1-2,1.59,1.59,0,0,0-1.94-1.1,19.49,19.49,0,0,0-6.5,3.3c-.67.55-1.31,1.14-2,1.69-.18.16-.37.3-.56.45.3-.24,0,0-.08.06l-.33.24c-.55.4-1.11.76-1.69,1.11a1.58,1.58,0,1,0,1.59,2.73Z" transform="translate(-45.7 -16.92)"/><path class="cls-1" d="M184.71,604.71c22.88.91,45.8.66,68.7,1,11.2.16,22.5.15,33.63,1.5,10.74,1.31,21.34,3.58,32.14,4.37,6.55.48,13.14.6,19.7.86a64.53,64.53,0,0,0,9.53-.17,65,65,0,0,1,9-.6c2,.06,2-3.08,0-3.17l-2.57-.1c-2-.08-2,3.08,0,3.16l2.57.11v-3.17c-5.37-.16-10.65,1.08-16,.88-5.89-.22-11.79-.47-17.69-.71-11-.45-21.86-2.59-32.79-4.11s-22.13-1.75-33.24-1.95c-11.45-.2-22.9-.23-34.35-.31-12.88-.09-25.76-.23-38.62-.75-2-.08-2,3.08,0,3.17Z" transform="translate(-45.7 -16.92)"/><path class="cls-1" d="M603.94,335.49c-6.53-7.07-13-14.06-19.08-21.55-2.81-3.48-5.61-7-8.6-10.28a126,126,0,0,0-9.75-9.45A269.34,269.34,0,0,1,546,274.14a163,163,0,0,1-16.87-22.37c-4.95-7.84-9.38-16-13.73-24.16a128.38,128.38,0,0,1-6.3-13.25,71.85,71.85,0,0,1-4.28-13.3,29,29,0,0,1,.91-12.86,83.76,83.76,0,0,1,4.48-12.27c3.52-7.71,9.13-13.69,15.51-19.14a126.52,126.52,0,0,1,47.36-25.25,154.91,154.91,0,0,1,27.1-5.1c4.69-.47,9.44-1,14.15-1a56.52,56.52,0,0,1,14.38,2.19c9,2.27,18.8,4.8,26.69,9.92,7.05,4.58,12.41,11.27,17.4,17.92,5.33,7.09,10.48,14.41,14.2,22.5a38.08,38.08,0,0,1,3.54,13.4c.33,4.46.37,9,.35,13.46a149.13,149.13,0,0,1-2.6,29c-2,9.64-5.33,18.89-8.7,28.11-1.68,4.6-3.35,9.2-4.94,13.84a79.39,79.39,0,0,1-5.56,13c-2.21,4-4.42,8-5.39,12.47a43,43,0,0,0-.88,10.44c0,1,.54,5.37-1.09,5.18-2-.23-2,2.93,0,3.16,2.9.34,4-2.49,4.21-4.86.3-3-.05-6,.22-9a33.43,33.43,0,0,1,4.36-13.41,93.51,93.51,0,0,0,6.23-13.34c6.78-19,14.7-37.83,16.58-58.07a184.51,184.51,0,0,0,.39-29.64,39.78,39.78,0,0,0-3-13,88.45,88.45,0,0,0-6.57-12.44,162.72,162.72,0,0,0-16-21.54,58,58,0,0,0-9.61-8.78,52,52,0,0,0-12.24-6.19c-4.71-1.75-9.55-3.19-14.4-4.48a73.52,73.52,0,0,0-14.53-2.84,104.73,104.73,0,0,0-15.22.75q-6.87.6-13.69,1.75a136.24,136.24,0,0,0-52.2,20.2c-7.74,5.06-15.3,10.91-21.4,17.9C509.29,169.32,506,177,503.43,185a36.79,36.79,0,0,0-2.09,12.93c.23,4.87,1.87,9.5,3.52,14,3.32,9.16,8,17.67,12.67,26.18A233.79,233.79,0,0,0,532.92,263a178.44,178.44,0,0,0,19.2,22.08c6.89,6.82,14.58,12.88,21.15,20,6.4,7,11.9,14.67,18.24,21.68,3.35,3.7,6.8,7.31,10.19,11,1.38,1.5,3.62-.74,2.24-2.23Z" transform="translate(-45.7 -16.92)"/><path class="cls-1" d="M627.08,376c-.64,3.39,1.28,6.58,2.73,9.51s2.67,6.21,4.61,9c4.1,5.92,12.19,8.36,19.11,8.81,7.43.48,14.57-3.16,19.42-8.68s5.17-13.41,5.45-20.27a52.19,52.19,0,0,0,.05-7.29,13.69,13.69,0,0,0-2.13-5.65,66.3,66.3,0,0,1-3.44-6c-.5-1.08-.91-2.19-1.51-3.21a6.53,6.53,0,0,1-1.3-2.72c-.09-2-3.26-2-3.16,0a8.81,8.81,0,0,0,1.61,4.12c.94,1.57,1.54,3.32,2.39,4.94,1.62,3.09,4.31,5.92,4.44,9.56a78.34,78.34,0,0,1-.54,12c-.35,3-.69,6.17-1.9,8.93a18.74,18.74,0,0,1-6.23,7.09,20.05,20.05,0,0,1-8.92,3.9,24.2,24.2,0,0,1-10.21-.92c-3-.83-6.43-1.92-8.69-4.11-2.51-2.43-4-5.84-5.37-9-.66-1.47-1.4-2.89-2.09-4.35s-1.57-3.21-1.27-4.79c.38-2-2.67-2.84-3-.84Z" transform="translate(-45.7 -16.92)"/><path class="cls-1" d="M617,334.11c6.56-26.4,2.62-54.09-6.36-79.45a147.5,147.5,0,0,0-7.57-17.92c-1.36-2.68-2.79-5.31-3.94-8.09-.8-1.91-2.18-3.84-4.54-3.59-2,.21-2.76,3.23-3,4.87a29.87,29.87,0,0,0-.19,6.88,50.75,50.75,0,0,0,3.46,15.7,57,57,0,0,0,7.84,13.59c2.6,3.39,6.11,7.76,10.62,8.43s7.58-2.42,9.23-6.19c2-4.56,2.94-9.75,3.93-14.6a68.66,68.66,0,0,0,1.67-19.27,41.07,41.07,0,0,0-1.77-9.4c-.65-2.06-1-4.87-2.53-6.49s-3.41-1.78-4.79-.17-1.59,3.76-1.76,5.62a30.57,30.57,0,0,0,.88,8.73c.61,3,1.22,6,1.94,9,1.6,6.67,3.31,13.32,5.31,19.88,1.94,6.37,3.73,12.82,5.8,19.15,2,6,5,11.47,7.81,17.1,2.68,5.29,5.29,10.75,9,15.39,1.59,2,3.75,4.23,3.94,6.89.39-.51.77-1,1.16-1.52l-1,.15c-2,.31-1.16,3.35.84,3.05l1-.16a1.56,1.56,0,0,0,1.16-1.52c-.24-3.31-2.25-5.89-4.26-8.38a60.19,60.19,0,0,1-6-9.43c-1.88-3.5-3.62-7.07-5.44-10.6a77.43,77.43,0,0,1-4.93-11c-1.32-3.93-2.37-7.94-3.58-11.91s-2.52-8-3.68-12.1c-2.28-7.94-4.2-16-5.89-24.08-.69-3.32-1.44-6.85-.66-10.23.12-.52.37-1,.47-1.55a2.62,2.62,0,0,1,.3-.53c-.35.3-.38-.17-.19.14a18.07,18.07,0,0,1,1.55,4,44.3,44.3,0,0,1,2.23,11.67,60.57,60.57,0,0,1-.82,12.18c-.63,4-1.54,7.91-2.52,11.81a36.73,36.73,0,0,1-2.32,7.42c-1,2.14-2.73,4.12-5.36,3.88s-5-2.73-6.66-4.59a51.54,51.54,0,0,1-10.93-19.23,47.43,47.43,0,0,1-1.93-11c-.16-2.62-.65-6.7,1.2-8.87l-1.12.46c1.11,0,1.39,1,1.75,1.92.61,1.49,1.31,2.94,2,4.37,1.61,3.18,3.26,6.33,4.71,9.6a164.14,164.14,0,0,1,7.32,20.06c4.17,14.1,6.91,28.72,6.79,43.46A109.76,109.76,0,0,1,614,333.27c-.49,2,2.56,2.82,3,.84Z" transform="translate(-45.7 -16.92)"/><path class="cls-1" d="M553.25,157.51c-9,4.26-19.21,9.67-23.87,19-2.72,5.41-3.54,12.14-3.77,18.11a47.89,47.89,0,0,0,2.25,16.68c1.61,4.88,4.32,8.93,9.31,10.68,2.39.84,5.18,1.4,7.62.47a6.15,6.15,0,0,0,3.66-4.68,87.38,87.38,0,0,0,1.77-9.48c.42-3.54-.25-7.18.46-10.69,1.2-6,5.52-11.09,9.16-15.79,3.4-4.39,8-10,6.83-15.95a9,9,0,0,0-5.4-6.48c-2.65-1.08-5.61-.84-8.41-.94-2-.07-2,3.09,0,3.16,4.16.15,10.37-.19,10.8,5.53.36,4.67-3.53,9.18-6.2,12.63-3.24,4.19-6.62,8.4-8.66,13.33-2.37,5.7-1,11.74-2.19,17.65-.29,1.43-.63,2.85-.87,4.3a12.54,12.54,0,0,1-.69,3c-.85,2-3.18,1.85-5,1.45a11,11,0,0,1-6-3.08,15.46,15.46,0,0,1-3.07-5.59,44.41,44.41,0,0,1-2.32-14.55c0-5.54.72-11.65,2.77-16.85,3.79-9.6,14.57-15,23.34-19.16,1.84-.88.24-3.6-1.59-2.74Z" transform="translate(-45.7 -16.92)"/><path class="cls-1" d="M581.94,144.73c-1.22,0-2.46-.3-3.68-.22a4.74,4.74,0,0,0-3.47,1.76,15.64,15.64,0,0,0-1.4,2.19,12.48,12.48,0,0,0-1,2.1,4.43,4.43,0,0,0,1.1,4.59,9.63,9.63,0,0,0,7.87,2.76,7.91,7.91,0,0,0,6.22-3.82,6.16,6.16,0,0,0,.51-4.34,9.63,9.63,0,0,0-2.78-4.47,1.58,1.58,0,0,0-2.24,2.24c.25.24.5.5.73.77l.17.2s.2.26.08.1,0,0,0,0,.15.2.21.3a6.1,6.1,0,0,1,.41.7c0,.08.2.3.19.39s-.14-.37,0-.09a2.25,2.25,0,0,1,.08.24,4.23,4.23,0,0,1,.18.7l0,.18s0-.36,0-.19l0,.4c0,.12,0,.23,0,.35s0,.17,0,.17a1,1,0,0,1,0-.21c-.06.23-.1.46-.18.69,0,.06-.15.4,0,.12s0,.05-.06.11-.25.4-.37.6.11-.17.12-.15l-.11.13-.23.25c-.08.08-.5.38-.51.46s.33-.23.11-.09l-.14.11-.26.17c-.2.12-.42.24-.63.34l-.17.08c-.18.09.32-.12.12-.06l-.3.12c-.24.08-.48.15-.73.21l-.37.08-.2,0c-.14,0-.17,0,.14,0a7,7,0,0,0-.79.05,6.26,6.26,0,0,1-.75,0l-.36,0c-.29,0,.11,0,.12,0s-.22,0-.26-.05a6.46,6.46,0,0,1-.76-.18,2.23,2.23,0,0,1-.81-.28c.15.14.22.1.08,0l-.2-.09-.4-.2a9.06,9.06,0,0,1-.77-.49l-.19-.13s.24.19.08.05-.3-.25-.44-.39a2.5,2.5,0,0,1-.32-.33c-.2-.21,0,0,0,0s-.11-.16-.15-.24-.06-.13-.1-.18.07.13.06.14-.1-.37-.11-.37,0,.41,0,.13c0-.06,0-.12,0-.19s0-.09,0-.14c0-.31,0,0,0,.08a1.49,1.49,0,0,0,.09-.39l.12-.35c.12-.37-.12.22.06-.14a4.44,4.44,0,0,1,.24-.49c.31-.61.65-1.22,1-1.81.09-.15.2-.3.3-.45s.16-.15,0,0l.08-.08.3-.3c.24-.23-.27.15.06-.05l.32-.17c.12-.08-.19.09-.2.08l.22-.08.31-.07c.23-.06-.17,0-.19,0a1.55,1.55,0,0,0,.21,0,34.92,34.92,0,0,1,3.68.21,1.59,1.59,0,0,0,1.58-1.58,1.61,1.61,0,0,0-1.58-1.58Z" transform="translate(-45.7 -16.92)"/><path class="cls-1" d="M183.27,138.29c-3.53,6-7.81,11.55-11.73,17.25-6.61,9.6-13.23,19.21-19.75,28.88-2.75,4.08-5.49,8.17-8.16,12.31a67.57,67.57,0,0,0-4.38,7.26,74.29,74.29,0,0,1-5.68,8.89c-2.91,4.3-5.86,8.57-8.63,13-1.4,2.21-2.48,4.65-3.75,6.94s-2.55,4.49-3.88,6.7c-2.55,4.25-5.2,8.44-7.82,12.64A216.27,216.27,0,0,0,95,278.56c-4.27,9.56-8.87,19-13.46,28.37q-1.69,3.46-3.38,6.93l3,.8c0,.59.07,0,.11-.08.19-.45.41-.9.62-1.34s.37-.8.57-1.19c.31-.62.64-.71-.22-.08l-2.32-1.79c-.05.22.24-.36,0,0a5.37,5.37,0,0,0-.31.69c-.46,1-.94,2-1.41,3l2.89.38c-.09-.3-.19-.59-.29-.88-.63-1.93-3.68-1.1-3.05.84.1.29.2.58.29.88.39,1.18,2.27,1.68,2.89.38a22.07,22.07,0,0,0,2-4.43c.25-1.22-1.11-2.67-2.32-1.79a6.18,6.18,0,0,0-1.53,2.5A7.55,7.55,0,0,0,78,314.66c0,1.48,2.23,2.26,2.94.8,4.54-9.37,9.18-18.68,13.56-28.11,2.22-4.78,4.24-9.64,6.61-14.34,2.25-4.49,4.75-8.85,7.34-13.14,5.15-8.51,10.66-16.79,15.49-25.49,1.27-2.28,2.35-4.72,3.75-6.94s2.84-4.4,4.3-6.57c2.91-4.32,5.88-8.6,8.68-13a19.59,19.59,0,0,0,1.26-2.16c-.08.17-.11.21.07-.13s.41-.8.63-1.19c.72-1.27,1.49-2.51,2.27-3.74,2.37-3.78,4.85-7.5,7.34-11.21,6.5-9.72,13.13-19.36,19.77-29,4.52-6.57,9.18-13.07,13.51-19.77.17-.26.34-.52.5-.79a1.58,1.58,0,0,0-2.73-1.6Z" transform="translate(-45.7 -16.92)"/><path class="cls-1" d="M249.44,133.67c4.69-7.48,9.45-14.91,13.88-22.54,2.61-4.5,5.32-8.93,8-13.37,2.94-4.83,6.13-9.48,9.22-14.22,1.57-2.4,3.12-4.81,4.72-7.19s3.47-4.54,4.6-7.08c4-8.89-4.37-17.69-10.88-22.71-4.1-3.15-8.91-5-13.56-7.08-1.14-.52-2.27-1.07-3.38-1.66s-1.7-1.1-2.84-.9A5.09,5.09,0,0,0,256.5,38a32,32,0,0,0-2.62,3.59c-7.09,9.72-14.39,19.34-21,29.41-5.85,8.94-11.41,18.08-17.22,27q-2.19,3.39-4.39,6.76c-1.12,1.71,1.62,3.3,2.73,1.6,10-15.32,19.35-31,30-45.91q7.49-10.39,15.07-20.73l-.95.73,2.1-.55-1.21-.16c4.76,2.74,10,4.41,14.8,7.15A35.84,35.84,0,0,1,285.18,57.4a13.17,13.17,0,0,1,2.6,6.58c.15,2.87-1.26,5-2.84,7.26-3.53,5.07-6.77,10.33-10.24,15.44-5.83,8.59-10.92,17.65-16.26,26.55-3.81,6.34-7.8,12.58-11.73,18.85-1.08,1.72,1.65,3.31,2.73,1.59Z" transform="translate(-45.7 -16.92)"/><path class="cls-1" d="M78.47,315.14C85.08,320,90.86,325.84,97.21,331a71.2,71.2,0,0,0,9.82,6.88,37.14,37.14,0,0,0,11.22,4.5,7.29,7.29,0,0,0,5.33-1.41,7.2,7.2,0,0,0,3-4.41,137.91,137.91,0,0,1,4.8-13.26,186,186,0,0,1,12.57-24.13c2.4-4,4.9-7.91,7.43-11.82a24.64,24.64,0,0,0,1.69-2.72,19.5,19.5,0,0,0,1-3.06c.62-2.17,2.1-3.83,3.34-5.69a134.41,134.41,0,0,0,6.85-11.79,100.45,100.45,0,0,1,5.14-9.33c7.18-10.77,14.08-21.72,21-32.65s13.82-21.93,20.77-32.87l1.79-2.8c1.1-1.72-1.64-3.31-2.73-1.6-13.6,21.31-26.86,42.83-40.7,64-1.31,2-2.62,4-3.95,6-2.29,3.4-3.85,7.4-5.82,11a113,113,0,0,1-7.17,11.52c-1.17,1.64-1.47,3.4-2.11,5.28-.71,2.12-2.43,4.1-3.64,6-4.83,7.54-9.49,15.19-13.55,23.18q-3,5.89-5.5,12c-.83,2-1.6,4.06-2.33,6.11-.81,2.27-1.35,4.71-2.25,6.93a4.37,4.37,0,0,1-5,2.28,35.14,35.14,0,0,1-6.37-2.31,58.56,58.56,0,0,1-11.21-7.12c-7-5.53-13.28-11.94-20.49-17.24-1.64-1.2-3.22,1.54-1.6,2.73Z" transform="translate(-45.7 -16.92)"/><path class="cls-1" d="M84.53,320c-1.2,2.86-3.21,5.21-5,7.72a34.63,34.63,0,0,0-3.88,7.8c-1.17,3-1.88,5.67-.81,8.85a21.87,21.87,0,0,0,4.45,7.59c3.95,4.31,9.67,4.68,15,5.86,2.38.53,4.67.73,6.74-.8,2.24-1.68,3.8-4.48,5.16-6.87a75.62,75.62,0,0,0,4.42-8.76c1.11-2.74.89-5.52-1.84-7.13a1.58,1.58,0,0,0-1.6,2.73c1.94,1.14.42,3.52-.32,5-1.08,2.2-2.17,4.41-3.39,6.54-1.12,2-2.37,4.4-4.17,5.83-1.61,1.29-3.62.49-5.42.11-4.4-.93-9.11-1.21-12.35-4.76A18,18,0,0,1,77.74,343c-.76-2.59.21-4.76,1.15-7.17a31.21,31.21,0,0,1,4-7.35,35,35,0,0,0,4.43-6.93c.78-1.85-2-3.46-2.74-1.59Z" transform="translate(-45.7 -16.92)"/><path class="cls-1" d="M82.11,324.56c-3.28-1.06-5.79-3.65-8.24-5.94-2.71-2.54-5.74-4.59-8.55-7-3-2.56-5.83-5.34-8.72-8-2.15-2-4.59-3.78-6.55-6a3.48,3.48,0,0,1-1.13-3.06,12.89,12.89,0,0,1,2-4.31c1.79-2.93,3.42-5.94,5.21-8.87,4.13-6.76,8.86-13.14,13.62-19.47,4.59-6.12,9.56-12.2,13.44-18.8,1-1.7,2.42-5.5,4.87-4.86,1.84.49,5.83,2.4,6.06,4.64.12,1.17-1.09,2.46-1.63,3.39-1,1.79-1.79,3.73-2.71,5.57-1.89,3.78-4.23,7.24-6.41,10.85-4.29,7.08-8.13,14.57-11.7,22A41.66,41.66,0,0,0,68.05,297c-.51,3.72-1.11,8,.06,11.65,2.07,6.51,8.79,9.39,14.7,11.51,1.92.69,2.75-2.36.84-3.05-5.44-1.95-12.27-4.77-12.93-11.38a38.43,38.43,0,0,1,1.11-11.94c1-4.38,2.94-8.22,5-12.19s3.88-7.68,5.94-11.46,4.41-7.43,6.69-11.13,3.8-7.82,6-11.55a11.74,11.74,0,0,0,1.72-3.54,5.42,5.42,0,0,0-1.49-4.58,14.65,14.65,0,0,0-6.79-4.15c-3.13-.85-5.17,1.07-6.8,3.53-1.91,2.9-3.63,5.88-5.63,8.72-2.36,3.37-4.81,6.67-7.28,9.95-5,6.71-10.12,13.39-14.62,20.48-2,3.17-3.71,6.51-5.71,9.69-1.58,2.52-3.63,5.56-3.06,8.7s3.9,5.46,6.19,7.42c3.32,2.84,6.36,6,9.62,8.89s6.86,5.31,10,8.28c2.88,2.7,5.8,5.52,9.64,6.76,1.94.62,2.77-2.43.84-3.05Z" transform="translate(-45.7 -16.92)"/><path class="cls-1" d="M173.91,124.58a374,374,0,0,1,27.94,40.24c2.18,3.62,4.3,7.3,6.26,11.05.95,1.8,3.68.2,2.73-1.6-7.67-14.63-17.09-28.45-26.88-41.73q-3.81-5.17-7.81-10.19c-1.27-1.59-3.49.66-2.24,2.23Z" transform="translate(-45.7 -16.92)"/><path class="cls-1" d="M202.16,103.31c4.05.33,8,2.91,11,5.47,3.72,3.17,8.23,5.22,12,8.34,8,6.64,15.15,14.38,22,22.18,1.34,1.54,3.57-.71,2.24-2.23-3.63-4.14-7.34-8.2-11.21-12.1a122,122,0,0,0-11.94-11c-2-1.53-4.16-2.82-6.28-4.17s-4.1-3-6.15-4.58c-3.3-2.54-7.43-4.71-11.63-5-2-.16-2,3,0,3.16Z" transform="translate(-45.7 -16.92)"/><path class="cls-1" d="M264,42.27c4-.37,6.61-3,9.23-5.75.54-.56,2-2.37,2.64-2.27,1.05.17,2.38,1.76,3.24,2.43,2.19,1.74,4.5,3.32,6.61,5.17a16.11,16.11,0,0,1,2.88,3c.65,1,.58,1.25,0,2.31-.8,1.43-1.91,2.69-2.59,4.18a14.25,14.25,0,0,0-1.44,7c.15,2,3.31,2,3.16,0A10.82,10.82,0,0,1,289,52.25c.81-1.43,1.9-2.68,2.61-4.17,1.38-2.9-.36-5.24-2.41-7.26a77.09,77.09,0,0,0-7.61-6.14c-2.05-1.57-4.61-4.68-7.49-3.18-3.75,2-5.5,7.18-10.16,7.61-2,.18-2,3.34,0,3.16Z" transform="translate(-45.7 -16.92)"/><path class="cls-1" d="M282.5,34.18C283,32.83,285,32,286,31.09c1.48-1.38,2.38-3.28,3.77-4.74,1.64-1.72,3.07-3.66,4.86-5.23a6.61,6.61,0,0,1,1.19-.85c.2-.1.16-.06.44-.18s.13,0,.14,0,.12.05.05,0a1.38,1.38,0,0,1,.34.43,2.16,2.16,0,0,1,.13,1.69A11.9,11.9,0,0,1,294.7,26a38.93,38.93,0,0,0-2.48,3.73c-2.06,3.66-4.72,7.28-5.47,11.5-.36,2,2.69,2.85,3.05.84.75-4.21,3.53-7.9,5.6-11.56,1.65-2.9,4.63-5.37,4.76-8.94a4.81,4.81,0,0,0-2.08-4.22,3.9,3.9,0,0,0-3.88.18c-2.45,1.33-4.12,3.79-5.95,5.81-.68.74-1.37,1.45-2,2.26a30.67,30.67,0,0,1-2.31,3c-1.61,1.64-3.6,2.43-4.49,4.7-.75,1.9,2.31,2.72,3,.84Z" transform="translate(-45.7 -16.92)"/><path class="cls-1" d="M288.47,28.4l-1,0,.42,3.1H288l-.42.06a3,3,0,0,1,.73,0l-.42-.06a4.22,4.22,0,0,1,.92.27l-.38-.16c.81.35,1.52.89,2.29,1.3a1.72,1.72,0,0,0,1.22.16,1.59,1.59,0,0,0,.38-2.89c-.68-.36-1.3-.81-2-1.15a5.79,5.79,0,0,0-1.38-.53,4.71,4.71,0,0,0-1.87,0,1.6,1.6,0,0,0-.94.73,1.62,1.62,0,0,0-.19,1,1.59,1.59,0,0,0,1.55,1.37l1,0A1.58,1.58,0,0,0,290.05,30a1.62,1.62,0,0,0-1.58-1.58Z" transform="translate(-45.7 -16.92)"/><path class="cls-1" d="M324.73,301.05c8.41-2.8,16.54-6.74,23.06-12.86,2.95-2.77,5.43-5.6,6.37-9.61a21,21,0,0,0,.56-5.74,14.81,14.81,0,0,0-.33-2.58c-.32-1.34-.94-1.65-2.22-2-2-.49-2.81,2.56-.84,3l.94.23-1.1-1.1a15.26,15.26,0,0,1-.63,9.2c-1.17,3.16-4.23,5.72-6.73,7.84C338,292.4,331,295.62,323.89,298c-1.92.64-1.1,3.7.84,3.05Z" transform="translate(-45.7 -16.92)"/><path class="cls-1" d="M354.13,284.81q-.27,6.84-.55,13.68a1.59,1.59,0,0,0,3.17,0q.27-6.84.55-13.68a1.59,1.59,0,0,0-3.17,0Z" transform="translate(-45.7 -16.92)"/><path class="cls-1" d="M348.51,295.24a1.59,1.59,0,0,0,0-3.17,1.59,1.59,0,0,0,0,3.17Z" transform="translate(-45.7 -16.92)"/><path class="cls-1" d="M353.85,269.12c-.1-4.06-.52-8.18,2.78-11.24,3-2.76,8.38-2.38,12.15-2.35A121.61,121.61,0,0,1,385,257.22c4.65.66,9.79,1.92,14.39.46,4.27-1.35,8.19-4.4,11.5-7.34a32.38,32.38,0,0,0,7-8.85,33.1,33.1,0,0,0,3.55-21.4c-1.44-8-6.32-14.66-12.93-19.24-3.57-2.49-8-4.31-12.41-3.95a24.93,24.93,0,0,0-10,3.2c-3.5,2-4.78,5.59-6.77,8.9-2.4,4-6.67,6.39-10.82,8.25-4.49,2-9.33,3-14,4.54a55.18,55.18,0,0,0-13.3,6.08,24.67,24.67,0,0,0-7.83,8.14c-2.23,3.77-4.38,8.49-4.67,12.89-.33,4.81,2.69,8.8,5.65,12.26a33.32,33.32,0,0,0,8.35,7.54,9.9,9.9,0,0,0,5,1.49,1.59,1.59,0,0,0,0-3.17c-3.45.05-6.58-3.19-8.79-5.49-2.66-2.74-5.79-6-6.82-9.76-1.16-4.26,1.39-9.33,3.34-13a21.77,21.77,0,0,1,7.34-8.14,52,52,0,0,1,12.54-5.77c4.29-1.39,8.71-2.36,12.89-4.06a34.9,34.9,0,0,0,11-6.62c2.9-2.77,3.85-6.75,6.38-9.74,2-2.37,5.85-3.43,8.76-4.06,3.95-.86,7.8.29,11.19,2.37a27.09,27.09,0,0,1,12.75,18,30.08,30.08,0,0,1-10.31,27.93c-3.34,2.8-7.43,6.09-11.93,6.46s-9.51-.85-14.08-1.5a88.22,88.22,0,0,0-15-1.23c-3.66.1-7.84,0-11.05,2.06a12.2,12.2,0,0,0-5.32,9.14,51,51,0,0,0,.05,5.53c.05,2,3.21,2,3.17,0Z" transform="translate(-45.7 -16.92)"/><path class="cls-1" d="M393.14,321.13l1,.2L393,319.8c.09.71-.6,1.06-1.06,1.53a7.29,7.29,0,0,0-1.2,1.56,17.66,17.66,0,0,0-1.83,5.88c-.68,4.25-.33,8.51-.36,12.79s-.28,8.77.34,13.15a104.26,104.26,0,0,0,2.87,12.83c1.14,4.15,2.32,8.28,3.3,12.46,1.06,4.56,2.11,9.12,3.51,13.59a51.55,51.55,0,0,0,5.27,11.1c1.92,3.25,3.3,6.61,6.38,9,3.39,2.58,5.89,6.12,9.43,8.5A21.47,21.47,0,0,0,423.5,424c.64.27,1.29.54,1.91.85.27.12.52.27.78.4s.35.41.21.09c.79,1.87,3.52.26,2.74-1.6-.34-.8-1.4-1.27-2.13-1.62-1.18-.57-2.41-1.05-3.61-1.56-3-1.3-5.1-3.64-7.32-6a44.85,44.85,0,0,0-4.33-3.71,14.23,14.23,0,0,1-3.39-4.55c-1.9-3.54-4.37-6.88-5.77-10.66-3.06-8.26-4.47-17.1-6.83-25.57-1.15-4.12-2.33-8.24-3.16-12.44a58.74,58.74,0,0,1-.93-13.1c.12-4.94-.46-10,.3-14.92.3-1.91.68-4.26,2-5.79,1.06-1.26,2.49-2.12,2.24-4a1.64,1.64,0,0,0-1.16-1.52l-1-.2c-2-.38-2.84,2.66-.84,3.05Z" transform="translate(-45.7 -16.92)"/><path class="cls-1" d="M147.62,664.42a3.28,3.28,0,0,0-.33-2.72c-.13-.2-.51-.54-.56-.65a6,6,0,0,1-.19-2.2c-.06-3-1-5.83-1.21-8.82s-.89-6-1.1-9c-.23-3.35,0-6.72,0-10.07a1.58,1.58,0,0,0-3.16,0c0,3.26-.23,6.52,0,9.78.18,2.94.82,5.82,1.08,8.75a35.85,35.85,0,0,0,.42,4,34.24,34.24,0,0,1,.81,4.25,19.4,19.4,0,0,0,.32,4.17c.16.54,1,1.37.89,1.69-.46,2,2.59,2.83,3.05.84Z" transform="translate(-45.7 -16.92)"/><path class="cls-1" d="M276.12,752.93a82.12,82.12,0,0,0,7.58,6.49c2.42,1.88,5.14,3,7.75,4.58,2.42,1.45,4.7,3.1,7.66,3.1,1.31,0,2.51-.49,3.65.33a3.86,3.86,0,0,0,3.41.73c2-.43,1.15-3.48-.84-3-.7.15-1.51-.86-2.19-1.09-1.28-.44-2.52-.11-3.82-.08-2.72.06-4.82-1.89-7.07-3.13a49.43,49.43,0,0,1-6.91-4.09,78.58,78.58,0,0,1-7-6,1.58,1.58,0,0,0-2.24,2.24Z" transform="translate(-45.7 -16.92)"/><path class="cls-1" d="M337,279.69a7.7,7.7,0,0,0-.57-3.89,3,3,0,0,0-3.52-1.29A3.86,3.86,0,0,0,329.8,278a4.53,4.53,0,0,0,2.86,3.87,1.65,1.65,0,0,0,2.17-.56c1.44-1.92,2-6.28-.54-7.57-1.49-.76-3.41,0-4.47,1.2a5.53,5.53,0,0,0-1.16,4.89c.79,3.8,5,5.56,8,3,2.85-2.39,3.81-7.6.22-9.84-2.89-1.81-6.68.23-8.7,2.45a9.78,9.78,0,0,0-2.61,5.25,4.74,4.74,0,0,0,3.39,5c4.23,1.29,7.68-3,8.48-6.71.85-3.91-1.32-7.91-5.73-6.94a12.36,12.36,0,0,0-5.34,3,9.42,9.42,0,0,0-2.37,3.94,30.64,30.64,0,0,0-1.49,5.89,11.14,11.14,0,0,0,.06,5.2,1.6,1.6,0,0,0,1.94,1.11c4-1.31,9.87-8.38,4.91-12-2.42-1.74-6.4-1.68-8.5.53s-2.58,5.79-3.06,8.62a7.25,7.25,0,0,0,.5,5c.94,1.57,2.5,1.92,4.2,2a11.81,11.81,0,0,1,2,.16,17.45,17.45,0,0,1,2.36,1,4.39,4.39,0,0,0,4.22-.2c2.74-1.73,4-5.07,5.93-7.53a13.42,13.42,0,0,1,4.18-3.08,30,30,0,0,0,5.23-3.38,17,17,0,0,0,4.74-6.09,3.6,3.6,0,0,0-.22-3.55c-1-1.28-2.74-1.42-4.22-1.36-2,.08-2,3.25,0,3.16a11.92,11.92,0,0,0,1.65.11c.13,0,.2.17,0-.12s.05.05,0,.22c0,0,.08-.35-.05.12a4.15,4.15,0,0,1-.47,1,17.31,17.31,0,0,1-3.11,3.77c-2.18,2.08-5,3.12-7.49,4.81a18.24,18.24,0,0,0-4.84,5.57,19.57,19.57,0,0,1-2.17,2.94c-.74.77-1.19,1.07-2.21.69a16.6,16.6,0,0,0-3.22-1.24c-1-.15-2.64.18-3.48-.35-1.52-1,0-5.15.34-6.49.45-1.9,1.05-4.27,3.39-4.34,2.12-.07,3.55.86,2.67,3a7.34,7.34,0,0,1-4.09,4l1.95,1.1c-.61-1.76,0-4,.37-5.78A16.41,16.41,0,0,1,327.9,278a8.49,8.49,0,0,1,4.7-3c2.56-.48,2,2.91,1.43,4.4a6,6,0,0,1-1.94,2.65c-1,.67-2.77,1-3.29-.46-.63-1.78,1.75-4.31,3.08-5.21s3.55-1.74,4.16.4c.43,1.48-1.17,4.8-3.07,4-1.53-.62-1.94-3.79-.07-4.23.09,0-.13-.14-.16-.18.18.22.11.76.1,1a4.19,4.19,0,0,1-.74,2.25l2.16-.57c-.3-.14-1.33-.59-1.29-1.08,0-.14.69-.61.93-.54-.42-.12-.16,0-.11.46a12.49,12.49,0,0,1,0,1.73,1.58,1.58,0,0,0,3.16,0Z" transform="translate(-45.7 -16.92)"/><path class="cls-1" d="M325.14,273.55c-5.73-.11-8.6,5.27-9.83,10.13-1.18,4.63-2.09,10.74,2.15,14.12a10.31,10.31,0,0,0,7.64,1.86c3.5-.39,6.22-2.26,8.94-4.38s5.42-3.91,7.57-6.48a30.33,30.33,0,0,0,4.62-8.35c1.16-2.83,1.65-5.86-1.57-7.45-3.43-1.7-7.8-1.79-11.54-1.73-2,0-2,3.19,0,3.16a31.12,31.12,0,0,1,8.33.78c.78.21,2.26.46,2.59,1.32s-.44,2.06-.72,2.74a28.43,28.43,0,0,1-3.49,6.72,27,27,0,0,1-5.6,5.18c-3.83,2.85-8.4,7.14-13.6,4.89-3.94-1.7-3.31-6.53-2.63-10,.75-3.77,2.38-9.48,7.14-9.39,2,0,2-3.12,0-3.16Z" transform="translate(-45.7 -16.92)"/><path class="cls-1" d="M322.15,279.69c0-2.33.35-4.73,2.78-5.63s5-.82,7.38-1.27c3.35-.61,6.69-1.16,10-.1,1.37.43,5.35,1.69,5.18,3.58s3,2,3.16,0c.3-3.32-3.74-5.21-6.28-6.2-4-1.56-8.09-1.27-12.25-.46-3,.59-6.32.5-9.12,1.85-3.19,1.53-4,5-4,8.23a1.58,1.58,0,0,0,3.16,0Z" transform="translate(-45.7 -16.92)"/><path class="cls-1" d="M327.8,274.71c-.5-3.13,4.06-4.46,6.37-4.77,4.73-.62,8.83,2.23,12.22,5.17.38-.9.75-1.8,1.12-2.69-1.76-.16-3.07,1.67-4,2.93-1.13,1.58-2,3.31-3.1,4.92a25.82,25.82,0,0,1-3.85,4.33,2.91,2.91,0,0,1-2.22.91c-.84-.2-1.55-1.42-2.05-2l-2.24,2.23c1.1,1.07,1.67,2.58,3.14,3.25a1.6,1.6,0,0,0,2.32-.95,13.46,13.46,0,0,0,.29-3.75c0-2-3.22-2-3.16,0a10.49,10.49,0,0,1-.18,2.91l2.33-.94c-1.1-.5-1.65-1.92-2.5-2.75-1.49-1.45-3.49.68-2.24,2.23,1.59,2,3.29,3.54,6,2.74,2.49-.73,4.06-3,5.69-4.83a32.84,32.84,0,0,0,3.22-4.7,22.25,22.25,0,0,1,1.64-2.45,10.21,10.21,0,0,1,.78-.83c-.19.19.19-.12.19-.11s-.28,0-.1.06a1.6,1.6,0,0,0,1.12-2.7c-4.44-3.84-9.55-7-15.64-5.93-4.37.75-9,3.57-8.24,8.6a1.61,1.61,0,0,0,1.95,1.11,1.63,1.63,0,0,0,1.1-2Z" transform="translate(-45.7 -16.92)"/><path class="cls-1" d="M338.82,277.85a6.78,6.78,0,0,1,.9,0l.37,0c.11,0,.47.08.06,0,.23.05.46.09.69.16s.26.08.39.12c.33.11-.06,0,0,0,.41.25.84.45,1.24.73s-.22-.19.09.08l.26.23a7.14,7.14,0,0,1,.56.54l.48.54.23.28c.2.24-.15-.21.09.12s.61.84.88,1.27c.58.89,1.09,1.81,1.61,2.73l2.49-1.92a22,22,0,0,0-4.44-3.3c-.66-.32-1.35-.59-2-.91a10.94,10.94,0,0,1-1-.54l-.22-.15-.1-.08-.1-.09-.23-.23a1.58,1.58,0,0,0-2.24,2.24,12.79,12.79,0,0,0,4.07,2.37,16.75,16.75,0,0,1,4,2.93,1.61,1.61,0,0,0,2.08.12,1.58,1.58,0,0,0,.4-2c-2.26-4-5.3-8.93-10.62-8.36a1.62,1.62,0,0,0-1.58,1.58,1.59,1.59,0,0,0,1.58,1.58Z" transform="translate(-45.7 -16.92)"/><path class="cls-1" d="M325.89,288.39a13.8,13.8,0,0,1-.64,2.39c0,.09-.06.18-.1.27a1.8,1.8,0,0,1-.08.21l.07-.17a2.91,2.91,0,0,0-.28.59c-.1.19-.2.37-.31.54a2.43,2.43,0,0,0-.14.2l.1-.13-.12.13a1.62,1.62,0,0,0-.24,1.92,1.6,1.6,0,0,0,1.78.72,24.2,24.2,0,0,0,8.31-5.13A1.58,1.58,0,0,0,332,287.7c-.25.23-.51.45-.77.67l-.46.37-.2.17h0c-.6.45-1.2.88-1.83,1.28a20.63,20.63,0,0,1-1.88,1.07l-.48.24-.3.13s-.29.13-.11.06-.07,0-.11,0l-.23.09-.54.19c.51.89,1,1.77,1.54,2.65a11.11,11.11,0,0,0,2.31-5.42,1.62,1.62,0,0,0-1.1-1.95,1.61,1.61,0,0,0-1.95,1.1Z" transform="translate(-45.7 -16.92)"/><path class="cls-1" d="M325.93,275.36a35.51,35.51,0,0,0,3.57-1.86c.66-.39,1.89-.9,2.22-1.68.07-.16-.62.43-.6.45s.33-.07.37-.07c.63,0,1.27-.17,1.9-.19,1.57-.06,3.14.09,4.71.13s3.11,0,4.67,0a9.51,9.51,0,0,1,4,.34c2.18.95,3.63,2.38,6.17,1.93,2-.34,1.16-3.39-.84-3-1,.17-2-.63-2.78-1.1a8.33,8.33,0,0,0-3.06-1.2c-3.15-.43-6.44,0-9.62-.11a27.3,27.3,0,0,0-4.43,0,5.9,5.9,0,0,0-2.49.54c-.12.07-.79.76-.59.59s-.08,0-.14.07c-.22.14-.46.27-.69.4a37.11,37.11,0,0,1-3.94,2.09c-1.87.8-.26,3.52,1.59,2.73Z" transform="translate(-45.7 -16.92)"/><path class="cls-1" d="M350.64,267.9c-5-.8-7.47-6.23-11.43-8.91a8.36,8.36,0,0,1-2.65-2.29,12.4,12.4,0,0,1-1.17-3.2c-.58-2.15-1.49-4.56-1.47-6.8.05-5,4.23-9.29,7.91-12.19a36.89,36.89,0,0,1,15.61-7.1,13.67,13.67,0,0,1,9,.94,41.2,41.2,0,0,0,4.2,2c1.68.58,3.45.81,5,1.69,1.78,1,3.37-1.73,1.6-2.73a18.93,18.93,0,0,0-4.5-1.63,31.66,31.66,0,0,1-4.93-2.14,15.39,15.39,0,0,0-8.35-1.6,38.78,38.78,0,0,0-18.5,7.3c-4.41,3.24-9,7.75-10,13.36-.5,2.78.22,5.21.88,7.88.59,2.36,1.1,5.12,2.81,7a32.36,32.36,0,0,0,4,3A31.71,31.71,0,0,1,342,266c2.13,2.34,4.55,4.45,7.78,5,2,.32,2.85-2.73.84-3.05Z" transform="translate(-45.7 -16.92)"/><path class="cls-1" d="M343.16,247c-.91,2-1.92,4-1.83,6.23s1.26,3.89,2.59,5.53c1.19,1.47,2.82,3.14,4.89,2.83a3.63,3.63,0,0,0,2.85-2.44c.85-2.36-.07-5.2-1-7.42a35.36,35.36,0,0,0-4.63-8.24c-1.53-2-3.55-4.62-6.28-4.87a1.61,1.61,0,0,0-1.52,1.16c-1.51,4.09-.13,8.42,1.15,12.37.92,2.84,1.07,6.25,3.6,8.21a1.58,1.58,0,0,0,2.32-.95c.45-3.28-1.69-6.19-3.59-8.66s-4-5.8-7-7.32a1.65,1.65,0,0,0-1.92.25c-4.33,3.83.49,10.35,3.08,13.66,1.42,1.82,3,3.52,4.51,5.25,2.34,2.67,4.53,5.74,8.06,6.86a1.6,1.6,0,0,0,2-1.1c1.47-4.78-.63-9.76.58-14.56a26.49,26.49,0,0,1,8-12.56L356.77,239c-1.89,1.92-4.25,3.35-5.25,6a1.61,1.61,0,0,0,1.11,2c2.4.69,5.17.08,7.46-.74s4.84-2,6-4.25a1.61,1.61,0,0,0-.94-2.33c-3.84-1-6.58,2.28-9.78,3.71-2.81,1.26-6,2.56-6,6.17,0,5.62,7.64,2.75,10.75,3.14-.5-.67-1-1.33-1.52-2-.88,3.4-4.4,5.76-7.6,6.71l2,1.52c-.17-1.57,2-2.59,3.18-3.19a39.92,39.92,0,0,1,5.85-2.35c4.73-1.6,9.85-4.52,15-3.9v-3.17c-2.56,0-7-1.21-8.28,1.89A1.65,1.65,0,0,0,369,250c3.27,2.86,7.92,3.14,11.88,1.62,3.39-1.3,7.09-4.2,6.88-8.23-.24-4.81-5.64-7.58-9.5-9.25-3.52-1.53-10.59-3.83-13.12.62-2,3.41,2.39,7,4.72,8.8a45,45,0,0,0,8.92,5.59c1.79.8,4.07,1.44,5.78.09a4.33,4.33,0,0,0,.51-6c-1.49-2-3.9-3.31-5.91-4.7a60,60,0,0,0-9.51-5.35c-5.28-2.36-11.8-3.86-16.62.31-2.08,1.81-4.06,4.81-3.7,7.68a4.09,4.09,0,0,0,5.62,3.46,1.59,1.59,0,0,0,.7-2.64c-2.53-2.09-6.05-4.33-9.49-3.63a5.34,5.34,0,0,0-3.85,3c-.7,1.57-.28,3.77-1.45,5.08h2.23c-4.41-4.88,2.8-8.4,6.76-9.68a38.2,38.2,0,0,1,6.47-1.59c2-.28,4.12-.52,5.75-1.74,1-.73,1.1-2.59-.37-2.89-4-.82-8.38,1.09-12.23-.42L350.6,232c.46-1.44,5.42-2,6.09-.56l.24-1.92c-1.14,1.11-3.71.68-5.2.88a19.85,19.85,0,0,0-5.08,1.4c-1.23.52-2.39,1.16-3.6,1.72-1,.47-2.53,1.28-3.68,1l1.11,1.94c.92-2.32,5.21-3.08,7.32-3.58A65.29,65.29,0,0,1,360,231.38c7.61-.28,15.13-.8,22.15-4,2.76-1.27,5.88-3.29,6-6.65a1.59,1.59,0,0,0-2.38-1.36c-2.76,1.55-7.29,7.38-2.49,9.21a4.52,4.52,0,0,0,6.27-4.9,1.52,1.52,0,0,0-1.1-1.1c-4.48-.8-7.53,1.1-10.26,4.54s-5.24,8.06-3.36,12.39c1.7,3.9,6.14,4.85,10,5.35a20.93,20.93,0,0,0,14.21-3.31,1.55,1.55,0,0,0,.78-1.36c-.42-4.12-4.94-6.93-8.63-7.88a24.45,24.45,0,0,0-15.73,1.46c-2.83,1.32-5.52,3.82-4.26,7.2,1.11,3,4.23,5,6.82,6.58a49.94,49.94,0,0,0,8.94,4.28,1.52,1.52,0,0,0,1.54-.41c4.05-5.12-5.1-9.34-8.68-10.86s-13.6-4.74-13,2.41l2.38-1.37a53,53,0,0,1-7.73-6.54,1.63,1.63,0,0,0-1.92-.25c-2.51,1.6-3.31,5.35-2.41,8.06a4.82,4.82,0,0,0,7.3,2.51,10.57,10.57,0,0,0,2.85-3.28c.5-.78,1.22-2.4,2.21-2.68.71-.2,2.32.76,3,1a10.63,10.63,0,0,0,3.37,1,6.64,6.64,0,0,0,5.34-2.18c3.68-4,5.68-8.92,7.28-14.07l-2.89.37c1.62,3.57,2.15,7.92,3.69,11.66s4,7.7,8.58,7a1.58,1.58,0,0,0,1.11-1.1,30,30,0,0,0,1.42-10.94c-.19-3.63-1-7.71-3.92-10.17a1.6,1.6,0,0,0-2.7,1.11c-.39,3.88,2.78,12.94,8.11,10.2,2.67-1.38,1.11-6.47.3-8.59-1.1-2.85-2.86-6-5.93-7.05-1.93-.65-2.76,2.4-.84,3.05s3,3,3.65,4.67,1.43,4,.89,5.93l.72-.95c-2.51,1.42-3.9-5.67-3.74-7.26l-2.7,1.12c2.48,2.1,3,5.67,3,8.74a27.65,27.65,0,0,1-1.33,9.3l1.1-1.1c-3.13.46-4.78-4.86-5.51-7-1.14-3.36-1.72-7-3.18-10.22-.6-1.31-2.52-.81-2.89.38-1.44,4.6-3.17,9.33-6.62,12.84-2,2-4.32.6-6.52-.24-1.89-.73-3.32-1.2-5.06.1a11.59,11.59,0,0,0-2.63,3.27c-.61.95-1.33,2.31-2.52,2.61-2.85.73-2.64-4.39-1-5.44l-1.92-.25a57.31,57.31,0,0,0,8.37,7A1.59,1.59,0,0,0,370,243c-.07-1,.06-1.24,1-1.34a10.28,10.28,0,0,1,3.07.31,22.54,22.54,0,0,1,4.45,1.47,28.82,28.82,0,0,1,5.73,3.1,6.78,6.78,0,0,1,1.84,1.74c.26.42.39.67.18.94l1.54-.41c-4.3-1.54-9.12-3.8-12.35-7.09-1.35-1.38-2.06-2.75-.37-4.06,3.21-2.49,8.12-3,12-2.73a13.7,13.7,0,0,1,5.8,1.49c1.37.75,3.58,2,3.76,3.8l.79-1.37a18.12,18.12,0,0,1-10.75,3.06c-2.62-.12-6.69-.52-8.44-2.75-2.23-2.87.12-7,1.91-9.38,1.92-2.6,4-4.74,7.48-4.12l-1.1-1.11c.26,1.51-2,1.42-2.72.63.16.38.31.75.47,1.12a6.17,6.17,0,0,1,3.11-4.17L385,220.71c-.1,2.36-4,3.79-5.77,4.47a42.49,42.49,0,0,1-8.51,2.3c-5,.8-10.11.58-15.16,1a54.33,54.33,0,0,0-10.13,1.73c-3.13.86-6.75,2.17-8,5.41a1.6,1.6,0,0,0,1.1,1.95c3,.88,6.25-1.43,8.88-2.62a17.72,17.72,0,0,1,6.36-1.54c2.05-.11,3.84-.09,5.4-1.6a1.65,1.65,0,0,0,.25-1.92c-2-4-10.59-2.64-11.87,1.32a1.61,1.61,0,0,0,1.1,1.95c4,1.57,8.18-.41,12.23.42-.13-1-.26-1.92-.38-2.89-1.9,1.42-4.62,1.24-6.84,1.72a37.06,37.06,0,0,0-9,3c-2.41,1.22-4.78,3.07-5.78,5.66-1.07,2.81,0,5.45,1.95,7.57a1.58,1.58,0,0,0,2.23,0,6.73,6.73,0,0,0,1.63-3.71c.19-1.27.2-2.75,1.54-3.36,2.29-1,5.48,1.22,7.16,2.6l.69-2.64c-1.85.59-1.93-1.15-1.33-2.51a8.65,8.65,0,0,1,4.08-4.35c3.55-1.67,7.83-.32,11.19,1.19a74.19,74.19,0,0,1,12.52,7.44c.67.48,3.41,2.38,2.06,3.43-.79.62-2.63-.47-3.34-.84a58.74,58.74,0,0,1-6.22-3.88,26,26,0,0,1-3.21-2.61c-.66-.64-2-1.81-2-2.84,0-.65,1.39-1.08,2.15-1.16a12.86,12.86,0,0,1,5.6,1,28.85,28.85,0,0,1,5.45,2.71,7.9,7.9,0,0,1,3.33,3.32c1.12,2.72-1.84,5-4,5.95-2.86,1.27-6.66,1.51-9.15-.67.09.64.17,1.28.25,1.92.56-1.32,4.38-.34,5.55-.32,2.09,0,2-2.93,0-3.17-5.74-.69-11.64,2.55-16.93,4.4-3.38,1.18-10.76,3.46-10.24,8.21a1.6,1.6,0,0,0,2,1.53c4.25-1.26,8.65-4.44,9.81-8.92a1.61,1.61,0,0,0-1.53-2,20.73,20.73,0,0,0-4.36.38,10.28,10.28,0,0,1-2.48,0c-.53-.09-.73-.15-.77-.39-.3-2,3.14-2.87,4.44-3.45,2.14-1,4.85-4,7.33-3.39-.31-.77-.63-1.54-.94-2.32-.84,1.57-2.91,2.4-4.5,2.93s-3.68,1.11-5.41.61c.37.65.73,1.3,1.1,1.94.72-1.88,3.07-3.17,4.44-4.56a1.58,1.58,0,0,0-2.24-2.24,30.28,30.28,0,0,0-8.56,13,19.83,19.83,0,0,0-.7,7.39c.19,2.69.66,5.5-.15,8.13l1.94-1.11c-2.85-.91-4.73-3.83-6.61-6-1.23-1.41-2.5-2.78-3.69-4.22a30,30,0,0,1-3.89-5.78c-.68-1.4-1.42-3.31-.06-4.51l-1.92.25c2.43,1.23,4,3.83,5.67,5.91a30.28,30.28,0,0,1,2.29,3.22c.53.88,1.36,2.19,1.22,3.28l2.32-.94c-.82-.64-1.08-2.27-1.32-3.19-.31-1.21-.6-2.41-1-3.6-1.07-3.27-2.24-6.84-1-10.22l-1.53,1.16c-.14,0,.26.11.57.3a7,7,0,0,1,1.08.87,19.58,19.58,0,0,1,2.37,2.77,31.84,31.84,0,0,1,4.12,7.58,13.16,13.16,0,0,1,.85,3.43c0,.54,0,1.64-.34,1.71-1.18.22-3.08-2.79-3.53-3.7-1-2.07.08-4.23,1-6.14s-1.88-3.44-2.73-1.6Z" transform="translate(-45.7 -16.92)"/><path class="cls-1" d="M349.78,238.64c.34,4.1,1.28,8.67,4.93,11.12,1.53,1,3.69,1.8,5.47,1s2.42-2.78,2.86-4.53l-2.89.38c1.51,3.17,4.66,4.71,7.85,5.74a1.59,1.59,0,0,0,2-1.52c-.19-4.14-6.75-4.86-9.78-5.47-2.31-.47-4.66-.85-6.92-1.52a10.15,10.15,0,0,1-2.21-.9c-.12-.07-.27-.2-.25-.22s-.08.51.11,0l-1.1,1.11a31.51,31.51,0,0,1,8.77-.6c2.61.2,5.33,1.14,7.88.2a1.61,1.61,0,0,0,.94-2.33c-3.08-4.88-11-2.82-15.76-2.86-3.75,0-7.71-.7-11.12,1.29-3.06,1.78-6.53,5.65-5.32,9.45,1.16,3.6,4.7,4.32,7.95,3.39,3.06-.87,5.85-2.46,8.93-3.34,3.54-1,7.08-2.08,9.78-4.74,2.92-2.9,4.19-6.73,4.65-10.74.14-1.24,0-3.1.89-4.1s2.48-1.41,3.62-2.1c2.36-1.4,6.06-3.73,5.49-6.94a1.61,1.61,0,0,0-1.94-1.1c-2.74.4-6.07.89-7.79,3.29a1.59,1.59,0,0,0,1.37,2.38,12.73,12.73,0,0,0,6.26-2.15,1.59,1.59,0,0,0-1.22-2.89,45.39,45.39,0,0,0-13.33,4.43c-1.8,1-.21,3.64,1.59,2.73,4.68-2.35,9.27-4.88,13.91-7.29a33.63,33.63,0,0,0,9.93-8.39c1.4-1.68,2.45-3.59,3.78-5.31a24.93,24.93,0,0,1,2.37-2.45c.75-.74,1.33-1.62,2.1-2.33.14-.14,1.13-.7,1.15-.83,0-.34-.27.09-.34-.22,0,.09.28.3.34.4a14.13,14.13,0,0,0,1.84,2.25c1.41,1.51,3,2.85,4.47,4.28a16,16,0,0,1,5.32,9.84c.35,2.84.56,8-2.1,9.92s-7.1-1.76-8.52-3.9c0-.06-.66-1.33-.59-.6,0,.32-.53-.19,0,.06,0,0,.31,0,.18,0,.28,0,.58,0,.87,0a9.37,9.37,0,0,1,4,1.65c1.85,1.25,6,4.85,3.56,7.2a5.94,5.94,0,0,1-6.66,1.09,9.89,9.89,0,0,1-3.15-3.52c-1.49-2.4-3.52-6.16-1.53-8.85,1.65-2.23,5.12-2.12,7.36-1,5.42,2.79,9.22,12.86,1.57,15.35a5.51,5.51,0,0,1-7.16-3.43c-.93-2.77-.5-6.83,2.23-8.48,3.25-2,6.13,1.78,7.49,4.29,1.88,3.46,3.48,9.1.92,12.63-1.93,2.68-5.53,3.85-8.56,4.76-3.45,1-7.3,1.69-10.84.73a8.61,8.61,0,0,1-4.46-2.84c-1.32-1.55-3.54.69-2.23,2.24,3.32,3.92,8.62,4.61,13.46,4,4.35-.58,9.22-2,12.78-4.63,4.59-3.44,5-9.19,3.39-14.38-1.35-4.39-4.5-10.11-9.68-10.46-4.32-.29-7.36,3.59-7.94,7.53-.66,4.46,1.11,9.39,5.58,11a9.92,9.92,0,0,0,11.45-4.16c2.35-4,.73-9.14-1.8-12.65s-6.12-5.85-10.45-5.41a7.56,7.56,0,0,0-7.07,8.05,15.53,15.53,0,0,0,2.22,6.34,15.7,15.7,0,0,0,4.11,5.11c3.86,2.84,11.77,1.36,12.8-3.94.82-4.23-3.62-8.29-7-10-2.27-1.2-8.83-2.91-8.5,1.7.16,2.11,2.11,4,3.65,5.29a11.9,11.9,0,0,0,6.15,2.86c5.36.56,7.36-5,7.68-9.38a19.18,19.18,0,0,0-3.92-13.63,73.77,73.77,0,0,0-5.89-5.84,27.19,27.19,0,0,1-2.56-2.91,3.18,3.18,0,0,0-2.33-1.55c-2.5-.11-4.14,2.65-5.68,4.16a50.11,50.11,0,0,0-5.45,6.85,34.53,34.53,0,0,1-6.25,6.36c-2.56,2.09-5.64,3.36-8.54,4.9s-6,3.29-9.1,4.84l1.59,2.73A42.89,42.89,0,0,1,374.07,223c-.41-1-.81-1.93-1.22-2.89a9.45,9.45,0,0,1-4.66,1.72c.45.79.91,1.58,1.36,2.38,1-1.45,4.3-1.61,5.9-1.84l-1.95-1.11c-.05-.27-.26.36-.45.59a8.78,8.78,0,0,1-1.29,1.22,20.74,20.74,0,0,1-2.9,1.91c-1.77,1-3.78,1.74-4.65,3.72-1.16,2.59-.71,5.72-1.57,8.44a11.77,11.77,0,0,1-6.32,7.19c-2.65,1.23-5.6,1.64-8.31,2.69-2.3.9-4.58,2.39-7.09,2.62a2.34,2.34,0,0,1-2.76-2c-.26-1.64,1.3-3.14,2.38-4.15,2.63-2.48,5.78-2.34,9.18-2.19,2.74.12,5.43-.17,8.16-.23,1.91,0,5.63-.32,6.83,1.59.32-.78.63-1.55,1-2.32-2.17.8-4.79-.14-7-.31a32.81,32.81,0,0,0-7.34.29c-1.67.25-3.56.45-3.56,2.52a3.07,3.07,0,0,0,1.08,2.25c1.48,1.37,3.79,1.83,5.69,2.27,2.57.58,5.18,1,7.74,1.61a18.3,18.3,0,0,1,3.4,1,5.35,5.35,0,0,1,1,.57c.3.26.22.4.21.2l2-1.53c-2.45-.79-4.8-1.85-6-4.29a1.6,1.6,0,0,0-2.89.38c-.18.73-.43,2.32-1.3,2.57-1.09.3-2.61-.95-3.28-1.68-1.81-2-2.25-5-2.46-7.59-.17-2-3.33-2-3.17,0Z" transform="translate(-45.7 -16.92)"/><path class="cls-1" d="M381.77,238.22c-1,3.6-2.68,8,1.28,10.47,1.92,1.18,4.47,1.67,6.63,2.22,2.43.61,5.11,1.19,7.58.51a1.59,1.59,0,0,0,.94-2.32c-2.91-3.81-8.46-4.38-12.88-4.91-.75-.09-.9-.12-1.86-.29s-2.11-.36-3.17-.51c-1.65-.24-3.79-.79-5.36,0a1.58,1.58,0,0,0-.32,2.48c4.27,3.47,9.73,4.65,14.81,6.45,1.5.54,2.65-1.59,1.54-2.64-2.62-2.45-5.77-5.63-9.54-6-2.29-.23-5.83,1.34-4.37,4.17,1.1,2.14,3.9,3.44,5.93,4.48a26.83,26.83,0,0,0,7.23,2.87c2.2.38,4.28-.19,6.47-.19a13.41,13.41,0,0,0,3.23-.06c1.51-.37,2.1-1.4,3-2.6,1.55-2.16,4-3.14,5.86-4.94a19.69,19.69,0,0,0,3.81-5.44,33.16,33.16,0,0,0,3.51-14.73,16.84,16.84,0,0,0-1.1-6.75,19.48,19.48,0,0,0-3.91-5.54,33.73,33.73,0,0,0-5.06-4.16c-1.8-1.25-3.71-2.59-6-2-1.85.52-3.33,2.1-4.51,3.53a22.58,22.58,0,0,0-2.93,4.2,26.59,26.59,0,0,0-2.12,6.91c-.52,2.66-1,5.74-.19,8.4.66,2.15,3.24,4.48,5.65,3.09.8-.47,1.12-1.81,1.42-2.63a21,21,0,0,0,.9-3.33,19.94,19.94,0,0,0,.11-6.54c-.67-4.27-3.42-9-7.63-10.59-4.41-1.66-8.31,1.92-10.71,5.26-1.28,1.79-2.32,4.65,0,6.13,1.68,1.07,4.1.69,5.86,0s4-1.94,4.27-4c.22-1.68-1.65-2.83-3.08-3.16a10.5,10.5,0,0,0-5.35.49,18.8,18.8,0,0,0-4.52,2.05l1.92,2.49c2.4-2.14,4.6-4.5,7-6.67,2.21-2,4.85-4.32,7.82-5.09,2.27-.59,2.73,1.44,3.19,3.2a23.72,23.72,0,0,1,.65,3.1,10.07,10.07,0,0,1,.08,1.55,1.29,1.29,0,0,0,0,.33c.09.42-.15,0,.1-.08h1.6c-2.72-2-5.09-5.1-4.81-8.62l-.78,1.37c1.78-1.34,3.19-.91,4.9.33a13.69,13.69,0,0,1,1.26,1c.27.25.5.52.75.78s.16.58.3.32l.94-.72c-3.69.55-7.14-7-3.18-8.36,1.59-.56,1.46-3.2-.42-3.1a16.65,16.65,0,0,0-3.59.38,1.6,1.6,0,0,0,0,3.05c2.37.9,5.87,1.13,7.3,3.49l1.37-2.38c-4.49.18-8.51-2.63-13-2.13.26,1,.53,2,.8,3,6.2-3.05,13.36,2.2,17.47,6.51,2.27,2.39,4,5,4.16,8.41.07,1.79-.18,3.55-.28,5.33-.11,2-.08,3.9-1,5.76l2.94.8c.8-6.09-.73-12.68-3.29-18.2-.95-2-1.9-4.09-2.88-6.12-.85-1.75-2-4-4.15-4.18-1.53-.11-1.87,1.73-1.12,2.7a8.57,8.57,0,0,0,3.81,2.27A10.12,10.12,0,0,1,411,212c2.71,3.12,3.75,7.55,3.79,11.58,0,2,.25,4,.17,6a8.57,8.57,0,0,1-2.3,5.52,42.75,42.75,0,0,1-3.58,4.45,25.64,25.64,0,0,0-4,3.93l2.73,1.6c2.62-4.72,3.25-10.27-.29-14.68-2.3-2.85-6.6-6.32-10.38-4.11a1.65,1.65,0,0,0-.73,1.79c1,6.55,5.16,12.22,9.66,16.87a1.6,1.6,0,0,0,2.7-1.12,20.26,20.26,0,0,0-.71-4.43c-.47-2.29-1-4.58-1.32-6.89a22.44,22.44,0,0,1-.36-6.28,5.46,5.46,0,0,1,.5-1.66c.22-.36.49-.42,1.09-.3,2,.37,2.84-2.68.84-3-5.61-1.05-5.91,5.32-5.5,9.27a79.72,79.72,0,0,0,1.37,8.13,27.89,27.89,0,0,1,.93,5.21l2.7-1.11c-4.17-4.31-7.9-9.43-8.85-15.48l-.72,1.78c2.22-1.3,5.33,2,6.52,3.59,2.54,3.32,1.72,7.46-.18,10.87a1.58,1.58,0,0,0,2.73,1.6c1.2-1.71,3.13-2.71,4.48-4.29.71-.84,1.24-1.8,1.93-2.66s1.53-1.75,2.19-2.72c2.47-3.6,1.62-8.25,1.54-12.35a21.42,21.42,0,0,0-3.88-12.22A12.55,12.55,0,0,0,409.9,207c-1.47-.74-3.59-1-4.65-2.39l-1.11,2.7c-.48,0-.1,0,.12.32s.49.76.71,1.15c.48.87.89,1.78,1.29,2.68.81,1.84,1.79,3.6,2.56,5.44a31.34,31.34,0,0,1,2.48,15.75c-.21,1.58,2.26,2.11,2.95.79a14.35,14.35,0,0,0,1.43-6.35,63.58,63.58,0,0,0,.3-6.76c-.26-4.08-2.31-7.31-5.06-10.21-5.24-5.52-13.67-10.77-21.31-7-1.36.67-.76,3.12.8,2.94,4.47-.49,8.54,2.32,13,2.14a1.59,1.59,0,0,0,1.36-2.38c-2-3.3-5.88-3.7-9.19-5v3.05a13.36,13.36,0,0,1,2.75-.27c-.14-1-.29-2.07-.43-3.11-6.27,2.21-4.3,11.33.69,13.87,1.21.62,3.29,1.16,4.56.43,1.71-1,.85-3.36-.07-4.53-2.39-3-6.81-5.55-10.43-3.17-2.32,1.52-1.14,5-.13,7.09a16.75,16.75,0,0,0,5.25,6,1.6,1.6,0,0,0,1.6,0c2.41-1.17,1.41-5.2,1-7.18-.57-2.54-1.32-5.9-4.17-6.76-3.4-1-7.2,1.71-9.71,3.65-3.49,2.71-6.41,6.06-9.71,9-1.34,1.19.41,3.46,1.92,2.48a15.4,15.4,0,0,1,4.52-1.95,7.87,7.87,0,0,1,2.51-.32c.31,0,.6.16.9.18.06,0,.29.22.33.21.24.24.24,0,0-.72a1,1,0,0,0,0,.14,2,2,0,0,1-.44.48,5.2,5.2,0,0,1-.95.61,7.42,7.42,0,0,1-2.47.73,6.73,6.73,0,0,1-1,0c-.07,0-.54-.13-.27-.05-.51-.14.05-.11,0,.05,0-.06-.09,0,0-.27a5.55,5.55,0,0,1,.85-1.59c1.19-1.69,3.06-3.86,5.2-4.22,2.3-.4,4.37,1.81,5.52,3.53,2.9,4.32,2.46,10.06.38,14.62l.95-.72c-.74.12-1.05-.15-1.32-.83a8.57,8.57,0,0,1-.32-3.42,30.29,30.29,0,0,1,1.66-8.15,16.35,16.35,0,0,1,5-7.09c2-1.6,3.75.22,5.47,1.42a24.52,24.52,0,0,1,5,4.64,11.18,11.18,0,0,1,2.67,6.21,28.1,28.1,0,0,1-.42,7.87c-.89,4.52-2.69,9.61-6.22,12.76-.94.85-2.06,1.45-3.07,2.2a12,12,0,0,0-2.75,2.81c-.37.51-.66,1.17-1.25,1.4a4.31,4.31,0,0,1-1.64,0,23.46,23.46,0,0,0-3.75.23c-3,.31-5.42-.73-8-2a33.84,33.84,0,0,1-4.13-2.28,11,11,0,0,1-1.37-1.08c-.1-.1-.27-.38-.3-.38.14,0-.15.25-.08.61s-.35,0,0,.05.74-.23,1-.25a5.55,5.55,0,0,1,3,1.05,30.47,30.47,0,0,1,5,4.07c.51-.88,1-1.76,1.54-2.65-4.5-1.59-9.63-2.56-13.42-5.63-.11.82-.21,1.65-.32,2.48-.41.2,0,0,.21.07s.74,0,1.11.07c.89.08,1.78.22,2.67.36,1.4.22,2.79.5,4.2.68a46.38,46.38,0,0,1,5.62.93c1.72.42,4,1,5.14,2.48.32-.77.63-1.54.95-2.32-1.9.52-4-.05-5.9-.51a32.45,32.45,0,0,1-5.23-1.56c-3-1.35-1.13-4.89-.47-7.24a1.58,1.58,0,0,0-3.05-.84Z" transform="translate(-45.7 -16.92)"/><path class="cls-1" d="M382.85,227.23c-.33,2.48-1.83,4.9-.94,7.44,1,2.72,4.16,3.7,6.51,4.85,1,.49,1.81,1.25,2.8,1.71,1.4.64,3.29.42,3.79-1.21a14.78,14.78,0,0,0,.24-6.68c-1.47-8.53-10.44-17.42-19.62-14.09a9.31,9.31,0,0,0-5.55,6,10.1,10.1,0,0,0-.53,4.56,47.28,47.28,0,0,1,.76,5.43,1.58,1.58,0,0,0,3.16,0,46.36,46.36,0,0,0-.78-5.64,7.8,7.8,0,0,1,.87-4.52c1.33-2.53,3.9-3.44,6.64-3.28,5.11.29,9.33,4.7,11.11,9.22a12.93,12.93,0,0,1,.57,8.43l1.11-1.1c-.53.14-.79-.19-1.22-.51a11.68,11.68,0,0,0-1.91-1.1,28.45,28.45,0,0,1-4.11-2.11c-1.06-.76-1.06-1.7-.78-2.89.35-1.51.84-2.94,1-4.49.11-.85-.81-1.57-1.58-1.58a1.63,1.63,0,0,0-1.59,1.58Z" transform="translate(-45.7 -16.92)"/><path class="cls-1" d="M381.93,215a28.56,28.56,0,0,0-1.9,5.11,13.78,13.78,0,0,0,.08,5.16c.56,3.25,1.27,7.19,5.05,8,2,.44,2.83-2.61.84-3a2.5,2.5,0,0,1-2-2,27.5,27.5,0,0,1-.89-4.1,9.46,9.46,0,0,1,0-3.4,25,25,0,0,1,1.54-4.18,1.62,1.62,0,0,0-.57-2.16,1.59,1.59,0,0,0-2.16.56Z" transform="translate(-45.7 -16.92)"/><path class="cls-1" d="M372.65,219.67c1.22,4.55,1.6,9.62,5,13.24,1.38,1.5,3.62-.74,2.23-2.23a12.72,12.72,0,0,1-2.65-5.47c-.58-2.11-.93-4.27-1.5-6.38a1.58,1.58,0,0,0-3.05.84Z" transform="translate(-45.7 -16.92)"/><path class="cls-1" d="M401.56,215.81c2.86,3.11,6.59-.76,8.19-3.18a7.37,7.37,0,0,0,1.54-4c-.09-2.16-1.56-4.21-3-5.68a7.45,7.45,0,0,0-2.88-1.84c-.56-.19-1.14-.32-1.7-.51a2,2,0,0,1-1-.7,1.6,1.6,0,0,0-2.24,0,1.62,1.62,0,0,0,0,2.23,5.26,5.26,0,0,0,2.5,1.54,12.37,12.37,0,0,1,2.23.78l.26.18s-.19-.15,0,0l.41.36a11.91,11.91,0,0,1,.85.89,8.73,8.73,0,0,1,1.29,2c-.07-.15.09.29.11.34s.12.56.09.28c0,.15,0,.29,0,.44,0-.35,0-.16,0,0s-.29.75-.11.36c-.12.25-.24.51-.37.76a15.94,15.94,0,0,1-1.06,1.65s-.19.23,0,0a2.09,2.09,0,0,0-.14.17l-.34.39a9.49,9.49,0,0,1-.7.72l-.41.35c.25-.19-.12.08-.21.13s-.28.16-.42.24c.29-.16,0,0-.15,0l-.15,0q-.13,0,.06,0c.14,0,.14,0,0,0s-.13,0-.15,0c-.21,0,.34,0,.13,0-.36-.06.26,0-.1,0-.12,0,.05,0,.1.09s-.18-.17-.26-.26c-1.38-1.5-3.61.74-2.24,2.24Z" transform="translate(-45.7 -16.92)"/><path class="cls-1" d="M406.1,235.66a5,5,0,0,0,3-1.17l.58-.47.23-.18a.52.52,0,0,1,.11-.1c.19-.15-.06.08-.08.07a3.83,3.83,0,0,0,.49-.33l.26-.15s.2-.1,0,0,0,0,.05,0a1.47,1.47,0,0,0,.3-.08c.14-.06-.12,0-.15,0a1.7,1.7,0,0,0,.22,0h.33c.05,0,.24,0,0,0s0,0,.06,0a6.09,6.09,0,0,0,1.59.16,3,3,0,0,0,1.94-.88,4.87,4.87,0,0,0,.88-1.51,3.29,3.29,0,0,0-1.45-3.91,8.8,8.8,0,0,0-3.6-1.18,27.33,27.33,0,0,0-3.62-.3,1.6,1.6,0,0,0-1.58,1.58,1.63,1.63,0,0,0,1.58,1.59c.82,0,1.64.05,2.45.14l.43,0c-.59,0-.14,0,0,0s.58.1.86.16.52.12.77.19l.4.13c.17.06.52.29,0,0,.2.12.41.19.6.32.37.24-.24-.24,0,0l.23.22c.17.16-.22-.37-.13-.16a.41.41,0,0,0,.08.13c.18.27-.15-.4,0-.1a.8.8,0,0,0,0,.15c-.16-.27,0-.44,0-.22a.66.66,0,0,0,0,.14c0,.29.09-.41,0-.17a1.48,1.48,0,0,0-.1.36c0-.29.16-.33.08-.19a1.86,1.86,0,0,0-.1.2,2.12,2.12,0,0,0-.12.2c.17-.35,0,.08-.06.05s.28-.19.07-.08q.36-.14.12-.06c-.17,0-.13,0,.14,0,0,0-.25,0-.3,0-.38,0,0,0,0,0a4,4,0,0,0-.53-.08,5.5,5.5,0,0,0-1.94,0,6.54,6.54,0,0,0-2.76,1.58l-.23.18-.08.06q-.19.17.09-.06a4,4,0,0,0-.56.38l-.16.09c-.23.13.35-.11-.07,0l-.28.07c-.17,0-.13,0,.12,0h-.21a1.58,1.58,0,0,0,0,3.16Z" transform="translate(-45.7 -16.92)"/><path class="cls-1" d="M399.28,245.46a6.53,6.53,0,0,1,.87.79c.05.06.1.13.16.19-.3-.3-.15-.2-.07-.08a3.13,3.13,0,0,1,.22.36l.09.18c.12.24-.15-.39-.06-.14s.09.25.13.38c.1.28.17.56.26.83s.24.65.34,1a6.74,6.74,0,0,1,.2.89,3.51,3.51,0,0,0,1.67,2.26,1.6,1.6,0,0,0,2.38-1.37c0-.23-.05-.46-.07-.69a1.73,1.73,0,0,0-.46-1.12,1.58,1.58,0,0,0-2.7,1.12l.06.69c.8-.45,1.59-.91,2.38-1.37l-.18-.11.17.13s-.14-.13-.19-.18-.07-.08,0,0,.1.13,0,0-.05-.22,0,.12c-.06-.27-.13-.53-.18-.79-.13-.63-.4-1.23-.58-1.84a8,8,0,0,0-.7-1.77,6.46,6.46,0,0,0-1.6-1.78,1.73,1.73,0,0,0-1.12-.46,1.58,1.58,0,0,0-1.12,2.7Z" transform="translate(-45.7 -16.92)"/><path class="cls-1" d="M272.68,698.65c3.27-.25,6.32,1.55,9.32,2.61,3.69,1.31,7.71,1.6,11.55,2.21a89.12,89.12,0,0,0,11.78.71c4,.13,7.84,1.27,11.82,1.32a1.59,1.59,0,0,0,0-3.17c-3.88,0-7.65-1.14-11.53-1.3-2-.08-4,0-5.94,0a50.73,50.73,0,0,1-6.5-.75c-3.7-.56-7.5-1-11-2.28-3-1.15-6.13-2.73-9.48-2.47-2,.16-2,3.32,0,3.16Z" transform="translate(-45.7 -16.92)"/><path class="cls-1" d="M176.44,611.54c-.22,3.13,1.08,5.58,2.65,8.17,1.85,3,4.18,6.28,5.21,9.72a44.44,44.44,0,0,0,4.28,9.67,92.58,92.58,0,0,1,5.19,9.73c.79,1.87,3.52.26,2.73-1.59a84.81,84.81,0,0,0-4.76-9c-.85-1.48-1.7-3-2.48-4.48a29,29,0,0,1-1.91-5.18c-1-3.27-3-6-4.66-9-1.47-2.66-3.31-4.88-3.08-8.08.14-2-3-2-3.17,0Z" transform="translate(-45.7 -16.92)"/><path class="cls-1" d="M88.36,304c2.82-.62,5.66,3.44,7.24,5.24a35.4,35.4,0,0,0,8.67,6.9c3.85,2.31,7.89,4.47,12,6.39a30.41,30.41,0,0,0,12.42,3.2v-3.16h-1.93a1.58,1.58,0,0,0,0,3.16h1.93a1.58,1.58,0,0,0,0-3.16,29.36,29.36,0,0,1-12.79-3.74A131.51,131.51,0,0,1,103.52,312a24.18,24.18,0,0,1-4.41-3.52c-1.14-1.22-2.2-2.52-3.36-3.72-2.18-2.24-4.91-4.48-8.24-3.74-2,.44-1.14,3.49.85,3Z" transform="translate(-45.7 -16.92)"/><path class="cls-1" d="M631.14,92c1.9-7.1,2.4-14.72,3-22,.16-1.85.27-3.69.25-5.54,0-1.13-.36-2.74.06-3.81s2.1-1.25,3.15-1.49c1.68-.39,3.3-1.23,5-1.3L641.31,57c1.79,2.92,0,7.53-.61,10.54-.4,2-.34,4-.62,6.09s-1.57,3.81-2.06,5.79-.71,3.92-1.24,5.85c-.4,1.46-.85,2.92-1.26,4.39a12.7,12.7,0,0,1-.63,1.89c-.11.25-.6.84-.4.79-1.41.39-2.24-2.7-2.54-3.51-.7-1.89-3.76-1.07-3.05.84s1.33,3.94,3,5.06a3.79,3.79,0,0,0,4.54,0c1.28-1.13,1.76-3,2.19-4.61.55-2,1.23-4,1.65-6.09a39.73,39.73,0,0,1,2.14-7.43c1-2.58.71-5.24,1.24-7.93.79-4,2.73-9.38.34-13.26a1.6,1.6,0,0,0-1.36-.79,26.64,26.64,0,0,0-5.42,1.32A10.84,10.84,0,0,0,633,57.52c-2.44,1.93-1.63,5.4-1.69,8.11-.08,4.29-.71,8.55-1.15,12.82a82,82,0,0,1-2,12.66,1.58,1.58,0,0,0,3,.84Z" transform="translate(-45.7 -16.92)"/><path class="cls-1" d="M674.89,111.14c9.73-7.1,16.91-17.46,27.84-22.93a15.18,15.18,0,0,1,1.32-.78c.25-.08.18-.16.55.33.62.83,1.27,1.62,1.84,2.48.38.58,1.3,1.72,1.09,2.41-.14.46-1.47,1-2,1.32a40.24,40.24,0,0,0-7.16,5.93c-2.57,2.45-5,5-7.62,7.41-1.36,1.27-2.78,2.45-4.16,3.69-1,.92-2,2.1-3.55,1.78S680.3,111,679,110a8.07,8.07,0,0,0-1.9-1.07c-.33-.13-1.38-.39-1.52-.74-.76-1.86-3.82-1-3,.84a4.51,4.51,0,0,0,2.87,2.61,17.54,17.54,0,0,1,3.93,2.71,6.26,6.26,0,0,0,8.5-.25c3.06-2.61,6-5.34,8.86-8.17s5.84-6.12,9.23-8.5c1.93-1.36,4.85-2.22,4.72-5.1-.11-2.37-2.15-4.87-3.64-6.58a3.84,3.84,0,0,0-2.64-1.57c-1.48-.13-2.9,1.08-4.15,1.73a48.81,48.81,0,0,0-8.64,6c-6.31,5.28-11.66,11.66-18.31,16.52-1.63,1.19-.06,3.93,1.59,2.73Z" transform="translate(-45.7 -16.92)"/><path class="cls-1" d="M708.3,145.57c8.16,0,16.32-.17,24.45-.83,3.33-.26,6.61-.66,9.9-1.21s6.53-1.1,9.65-.21l-1.16-1.53a12.27,12.27,0,0,1-1.4,5,3.52,3.52,0,0,1-3.61,2.51c-5.09.15-10.2,0-15.29,0-5.33,0-10.72-.21-16,0-1.1,0-4.36.88-4.89-.39a17.24,17.24,0,0,1-.22-2.52,4.32,4.32,0,0,0-1.41-2.34c-1.52-1.35-3.76.88-2.23,2.23.82.73.58,1.71.69,2.71a3.9,3.9,0,0,0,1.27,2.62c1.62,1.44,4,1.05,6,.9,3-.23,6.12-.06,9.15-.06h9.5c3.15,0,6.3,0,9.45,0,2.25,0,4.83.32,7-.5s2.92-2.44,3.7-4.3a14.63,14.63,0,0,0,1.52-5.85,1.62,1.62,0,0,0-1.16-1.52c-3.07-.88-6.29-.54-9.4-.09-3.47.5-6.88,1.06-10.38,1.35-8.33.7-16.7.87-25.06.88a1.58,1.58,0,0,0,0,3.16Z" transform="translate(-45.7 -16.92)"/><path class="cls-1" d="M393.55,317.28l-.14.62,1.52-1.16a4.61,4.61,0,0,0-3.54,2.42,45.4,45.4,0,0,0-3,4.71c-1.93,3.94-1.31,9-1.15,13.28.08,2.13.1,4.25.15,6.38a23.18,23.18,0,0,0,1.27,6.21c.29,1,.67,2.05.87,3.09s0,2.19.32,3.27a20.54,20.54,0,0,0,1,2.34,22.86,22.86,0,0,1,1.09,4c.44,2.07.67,4.19,1.22,6.23.65,2.38,1.39,4.84,2.21,7.17a39.79,39.79,0,0,0,2.48,5.29,49.57,49.57,0,0,1,2.57,6.39,118.2,118.2,0,0,1,3.51,13,19.55,19.55,0,0,0,2,5.1c1.08,1.93,1.77,3.92,2.7,5.9.8,1.71,2,3.23,2.8,4.92a7.24,7.24,0,0,0,4.22,3.62,15.74,15.74,0,0,1,3.19,1.5c.93.62,1.75,1.38,2.65,2a25,25,0,0,1,3.2,2.17,9.63,9.63,0,0,0,2.09,2,1.6,1.6,0,0,0,2.32-.94c.06-.23.12-.46.17-.69.5-2-2.55-2.81-3-.84l-.18.69,2.33-.95c-.74-.38-1.16-1.25-1.78-1.79a16.34,16.34,0,0,0-2.12-1.47c-1.72-1.09-3.21-2.57-5-3.52-1.39-.74-3.27-1-4.44-2.06A7,7,0,0,1,413.8,414a25,25,0,0,0-1.42-2.33,23.38,23.38,0,0,1-1.88-4.14c-.72-1.78-1.83-3.35-2.64-5.09a27.42,27.42,0,0,1-1.52-5.51c-.46-2-.93-4-1.49-6a59.69,59.69,0,0,0-4.28-11.37,60.62,60.62,0,0,1-4.29-11.42c-.56-1.94-.78-4-1.18-5.94a32.73,32.73,0,0,0-1.78-5.91,7.87,7.87,0,0,1-.44-2.83,14.41,14.41,0,0,0-.71-2.95,39.17,39.17,0,0,1-1.54-5.81c-.26-2.27-.09-4.64-.18-6.93s-.18-4.68-.12-7A12,12,0,0,1,392,324c.49-.76,1.05-1.46,1.52-2.23.26-.43.83-1.82,1.42-1.87a1.63,1.63,0,0,0,1.53-1.16l.14-.61c.48-2-2.57-2.83-3.05-.85Z" transform="translate(-45.7 -16.92)"/><path class="cls-1" d="M241.1,315.78c1-1.15,2.41-1.41,3.8-1.85a43.73,43.73,0,0,0,4.72-1.61,30.43,30.43,0,0,1,4.4-1.87c1.73-.48,3.48-.87,5.22-1.31s3.35-.38,5-.77a28.64,28.64,0,0,1,4.35-1.21c3.34-.27,6.57.32,9.84-.69,6.9-2.14,14.13-1.34,21.23-2,3.58-.34,7.08-.25,10.66-.3a35.44,35.44,0,0,0,4.92-.55c1.63-.26,3.25-.26,4.89-.38,1.39-.1,3.32-.44,4.55,0,.73.26,1.68.88,2.52,1.2,2.14.79,4.4-.09,4.08-2.69-.25-2-3.42-2-3.16,0a2.87,2.87,0,0,0,.06.46l.67-.58a.45.45,0,0,1-.16,0,6.11,6.11,0,0,0-1.07-.41,21.67,21.67,0,0,0-2.06-1,10.38,10.38,0,0,0-3.64-.25c-1.62.08-3.26.14-4.88.27s-3.09.48-4.65.66a37.73,37.73,0,0,1-5.21.07c-3.48-.08-6.91.36-10.38.61s-7,.07-10.45.31a49.7,49.7,0,0,0-5.16.6c-1.57.27-3,.86-4.58,1.25-3.1.78-6.38-.1-9.52.48-1.37.25-2.61.91-4,1.18-1.66.34-3.34.36-5,.8-1.82.47-3.68.84-5.48,1.38a45.46,45.46,0,0,0-4.68,2.06c-2.94,1.24-6.91,1.36-9.1,3.94-1.31,1.54.91,3.79,2.23,2.23Z" transform="translate(-45.7 -16.92)"/><path class="cls-1" d="M237.1,313.87a58.32,58.32,0,0,0-4.93,7.23,75.72,75.72,0,0,0-3.45,8.08c-2.39,5.84-5.58,11.25-7.66,17.23a85.86,85.86,0,0,1-3.25,8.66,49.21,49.21,0,0,0-2.67,8.38,63.54,63.54,0,0,0-2.55,18.27,16.46,16.46,0,0,1-.48,4.32,47.91,47.91,0,0,0-.64,4.77,90.37,90.37,0,0,0-1.23,9.08c-.09,2.9-.9,5.7-1.27,8.58a34.75,34.75,0,0,0-.23,4.08,29.63,29.63,0,0,1-.48,4.09c-.2,1.5.05,3-.15,4.52s-.9,2.61-1,4,.28,2.92-.19,4.41a19.75,19.75,0,0,0-1.17,4.05c-.28,3.11-.84,6.26-1.33,9.36s-1.71,5.65-2.59,8.5c-1.8,5.8-.31,12.05-1,18a47.62,47.62,0,0,1-1.72,9.37c-.92,2.8-.33,5.8.14,8.62.53,3.19.33,6.36.51,9.57.08,1.43.34,2.81.55,4.23a28.25,28.25,0,0,1,.14,5.12,90.5,90.5,0,0,1-.61,9.17,41.51,41.51,0,0,0-.28,4.16,26.74,26.74,0,0,1-.85,4.86,34.86,34.86,0,0,0-.64,8.77c0,1.58.12,3.18,0,4.76s-.53,2.88-.72,4.34c-.4,3.12,0,6.34-.13,9.48s-.68,6.32-.71,9.48c0,2.85-.75,5.6-.75,8.48a42.84,42.84,0,0,1-1.2,8.88,8.35,8.35,0,0,1-1.19,3.37,13.34,13.34,0,0,0-1.9,3.16c-.45,1.24-.53,2.59-.9,3.85-.45,1.53-1.07,3-1.61,4.52a22.09,22.09,0,0,1-1.57,3.87c-.74,1.27-1.79,2.31-2.61,3.53-1.33,2-2,4.28-3.4,6.24-1.64,2.35-4.27,3.45-6.34,5.34-.83.75-1.5,1.68-2.36,2.41a7.91,7.91,0,0,1-4,1.37c-1.31.21-2.64.32-3.94.56a8.65,8.65,0,0,0-1.88.48c-.58.24-1,.72-1.57,1-1.12.52-2.25.2-3.34,1a2.76,2.76,0,0,1-1.54.77,13.39,13.39,0,0,0-2.17.5c-2.63.86-5,2.36-7.68,3.09-2.48.68-4.56,1.46-6.29,3.49a9.24,9.24,0,0,0-2.34,6.6c.16,2,3.32,2,3.16,0a6.67,6.67,0,0,1,3.59-6.19,20.68,20.68,0,0,1,3.48-1.09,42.53,42.53,0,0,0,4.07-1.69,19.59,19.59,0,0,1,3.88-1.47,8,8,0,0,0,3.29-1.08,3.39,3.39,0,0,1,1.85-.65,3.9,3.9,0,0,0,1.46-.46c.48-.27.86-.7,1.36-.92a9.32,9.32,0,0,1,2.28-.46c2.49-.37,5.36-.41,7.54-1.83a15,15,0,0,0,2.56-2.41,22,22,0,0,1,3.36-2.65,16.51,16.51,0,0,0,5.06-5.39,49.13,49.13,0,0,1,3.93-6.68c1.72-2.19,2.52-4.65,3.46-7.24.48-1.31,1-2.62,1.4-4s.41-3,1.19-4.31c.53-.89,1.27-1.63,1.76-2.56a14.54,14.54,0,0,0,1.07-3.79,41.73,41.73,0,0,0,1.2-8.62,26.87,26.87,0,0,1,.18-4.11,28.22,28.22,0,0,0,.58-4.39c0-3.15.52-6.28.67-9.42s-.19-6.2.08-9.27c.11-1.37.51-2.7.69-4.06a32.85,32.85,0,0,0,.13-5,35.68,35.68,0,0,1,.57-9.11,38.88,38.88,0,0,0,.81-4.28c.16-1.51.07-3,.26-4.54.38-3,.56-6,.68-9,.06-1.48.12-2.95,0-4.43-.09-1.66-.48-3.27-.63-4.93-.28-3,0-6.1-.37-9.13s-1.45-6.32-.37-9.36c1-2.82,1.2-5.85,1.6-8.81a54.7,54.7,0,0,0,.33-9.23c-.12-3.07-.26-6.09.67-9.07s2.12-5.52,2.59-8.49c.22-1.41.36-2.82.56-4.22.23-1.57.71-3.08.82-4.66a13.92,13.92,0,0,1,.94-4,10.57,10.57,0,0,0,.53-4.4,11.62,11.62,0,0,1,.67-3.92,18.29,18.29,0,0,0,.28-4.31c0-1.45.43-2.84.55-4.28s0-2.81.12-4.21c.25-2.9,1.1-5.7,1.35-8.6a34.8,34.8,0,0,1,.37-4.33c.32-1.53.52-3.06.73-4.61s.32-2.84.5-4.26.76-3,.83-4.52c.14-3.21-.16-6.36.42-9.55,1.09-6,2.08-12.27,4.6-17.83s3.93-11.36,6.62-16.78c1.41-2.85,2.84-5.71,4.08-8.65a82.18,82.18,0,0,1,3.42-8,59.19,59.19,0,0,1,4.93-7.24c1.24-1.61-1.5-3.19-2.73-1.59Z" transform="translate(-45.7 -16.92)"/><path class="cls-1" d="M215.6,367.88l-.06.48c-.2,1.57,2.27,2.14,2.94.8a3.88,3.88,0,0,1,.93-1,5.33,5.33,0,0,0,1.21-1.62,18.56,18.56,0,0,0,.7-2,10,10,0,0,1,.88-1.65c1.21-2.24,1.13-4.65,1.12-7.11a1.58,1.58,0,0,0-3.16,0c0,1.11.06,2.24,0,3.35,0,0,0,.32,0,.22a2.62,2.62,0,0,0-.06.29c0,.23-.1.46-.16.68a5.53,5.53,0,0,1-.61,1.32,10.33,10.33,0,0,0-.93,1.85c-.18.52-.28,1.07-.5,1.58-.39.93-1.58,1.55-2.09,2.56l2.95.79.06-.48a1.59,1.59,0,0,0-1.58-1.58,1.62,1.62,0,0,0-1.58,1.58Z" transform="translate(-45.7 -16.92)"/><path class="cls-1" d="M399,386.93c.36.61.72,1.24,1.06,1.87.19.35.37.7.54,1.06l.19.4c0,.05.26.6.14.31a14.2,14.2,0,0,1,.69,2.09l.09.42c0,.07.1.66.05.29a7,7,0,0,1,.06,1.12,1.58,1.58,0,0,0,3.16,0c.05-3.31-1.61-6.39-3.25-9.16a1.58,1.58,0,1,0-2.73,1.6Z" transform="translate(-45.7 -16.92)"/><path class="cls-1" d="M179.23,615v-.5h-3.17c.11,3.14,1.9,6.14,3.14,9,1.57,3.6,3.44,7,4.82,10.65a50,50,0,0,0,4.92,8.92,14.38,14.38,0,0,0,3,3.54c1.16.94,2.19,1.49,2.47,3.06.35,2,3.4,1.15,3-.84-.55-3.08-3.37-4-5.06-6.33-.93-1.26-1.58-2.69-2.48-4a21,21,0,0,1-2.62-4.7c-1.3-3.39-2.73-6.61-4.36-9.87-.82-1.64-1.42-3.37-2.19-5a11.05,11.05,0,0,1-1.48-4.39,1.59,1.59,0,0,0-3.17,0v.5a1.59,1.59,0,0,0,3.17,0Z" transform="translate(-45.7 -16.92)"/><path class="cls-1" d="M148.82,666.66a4.11,4.11,0,0,1,.35-2.25,11.39,11.39,0,0,1,2.48-2.66,37.93,37.93,0,0,1,5.19-4,17.31,17.31,0,0,1,3-1.25c1.1-.41,2.11-1,3.18-1.48a22.7,22.7,0,0,1,7-1.8c2.52-.25,5.06-.18,7.59-.18a60,60,0,0,0,7.82-.07c.93-.13,1.78-.48,2.7-.67,1.27-.27,2.56.13,3.85,0,2.33-.28,4.11-1.84,6.34-2.39a35.76,35.76,0,0,0,6.82-2.15c2.26-1.05,4.32-2.49,6.73-3.16a17.34,17.34,0,0,0,2.85-1c1.08-.51,2-1.29,3.13-1.78,2.11-.92,4.42-1.21,6.53-2.18,2.27-1.06,4.45-2.24,6.77-3.22a35.37,35.37,0,0,0,6.74-3.51,43.38,43.38,0,0,1,5.94-3.85,47.85,47.85,0,0,0,5.72-3.77c2.22-1.52,5-2.12,6.86-4.08.85-.89,1.58-1.9,2.5-2.72a15.1,15.1,0,0,1,3.37-2,20.88,20.88,0,0,0,6-4c1.1-1.18,2.46-3.71,4.32-3.51,2,.22,2-2.94,0-3.16-1.84-.2-3.39.92-4.6,2.19-1.44,1.51-2.53,3-4.36,4.12-2.05,1.24-4.4,2-6.31,3.53s-3,3.74-5.3,4.73a34.17,34.17,0,0,0-6.25,3.68c-2,1.45-4.31,2.36-6.35,3.75a56,56,0,0,1-6.49,4.29c-2.38,1.19-4.92,2-7.28,3.26a36.39,36.39,0,0,1-7,2.81c-2.3.65-4.07,2.14-6.27,2.94-1,.38-2.11.57-3.12.95a32.33,32.33,0,0,0-3.55,1.85,26.41,26.41,0,0,1-7.29,2.73,14.48,14.48,0,0,0-3.09.93,14,14,0,0,1-3.64,1.58c-1.18.18-2.36-.19-3.55,0s-2.26.67-3.44.79c-2.72.27-5.6,0-8.34,0a59.18,59.18,0,0,0-7.65.32,26.18,26.18,0,0,0-7.93,2.35c-2.27,1.09-4.71,1.71-6.75,3.21a43.86,43.86,0,0,0-6,5,10.14,10.14,0,0,0-2,2.72,7.8,7.8,0,0,0-.44,3.18,1.59,1.59,0,0,0,3.17,0Z" transform="translate(-45.7 -16.92)"/><path class="cls-1" d="M189.05,604.74l.1-.63L188,605.22c4.24-1.42,9,.63,13.21,1.09,2.95.31,5.94-.07,8.87.36a60.48,60.48,0,0,0,8.5.77c2.88,0,5.73,0,8.6.21s5.94.54,8.94.53c5.92,0,11.84,0,17.76.14a22.49,22.49,0,0,0,7.73-1.2c2.54-.83,5.33-.52,8-.39a28.39,28.39,0,0,0,7.92-.29,7.22,7.22,0,0,1,2.76-.36,35.63,35.63,0,0,1,3.84.6c2.48.57,4.73,1.5,7.32,1.52,2.8,0,5.51.35,8.3.59s5.74,1,8.63.92a14.76,14.76,0,0,1,3.81.31,16.08,16.08,0,0,0,3.78.57,47.91,47.91,0,0,1,4.79-.16c1.53.14,3,.63,4.53.77a47.6,47.6,0,0,0,4.78-.07,27.8,27.8,0,0,1,4.89.59c2.9.48,5.88-.23,8.73.48,3.1.78,6.16.56,9.35.55a1.59,1.59,0,0,0,0-3.17H351a1.59,1.59,0,0,0,0,3.17H353v-3.17c-2.88,0-5.71.28-8.51-.43-2.62-.66-5.15-.13-7.78-.35-2.8-.25-5.34-.91-8.18-.78a18,18,0,0,1-4.28-.15,25.73,25.73,0,0,0-4.37-.64c-1.32,0-2.63.2-3.95.2a20.58,20.58,0,0,1-3.89-.68,18.34,18.34,0,0,0-3.7-.2,30,30,0,0,1-4.72-.51c-2.84-.39-5.72-.63-8.57-.92-2.65-.27-5.08,0-7.67-.79a38.19,38.19,0,0,0-7.42-1.45,7.08,7.08,0,0,0-2.63.32,14.85,14.85,0,0,1-3.92.51c-2.73,0-5.45-.22-8.18-.28a12.75,12.75,0,0,0-3.69.4,31.21,31.21,0,0,1-4.25,1.21c-2.73.35-5.52,0-8.26,0h-9.22c-3,0-6,0-9.08-.2s-5.74-.55-8.63-.55a59.78,59.78,0,0,1-10-.43,89.34,89.34,0,0,0-9.68-.59c-5-.28-10.23-2.75-15.25-1.07a1.55,1.55,0,0,0-1.1,1.1c0,.21-.06.42-.1.63-.29,2,2.76,2.85,3.05.84Z" transform="translate(-45.7 -16.92)"/><path class="cls-1" d="M262.73,614.21a35.94,35.94,0,0,0,1.27,7.4c.53,2.57.77,5.2,1.3,7.77s1.45,5,1.8,7.53.25,5,.66,7.44a52.33,52.33,0,0,1,.3,8.4c0,2.62.57,5.14.74,7.74.33,5.32-.43,10.74.16,16a69.41,69.41,0,0,0,1.35,7.13,49.52,49.52,0,0,1,.83,7.57c.15,2.41.89,4.76,1,7.17s-.24,5-.24,7.52c0,5.44-.12,10.9.05,16.34a43,43,0,0,1-.41,7.7,55.72,55.72,0,0,0-.4,8,78.29,78.29,0,0,0,0,8.39,12.89,12.89,0,0,0,1.19,3.46,17,17,0,0,1,.8,4.19c.46,3.4,1.35,9.58,5.28,10.78,2,.6,2.78-2.46.84-3-1.18-.36-1.77-2.72-2.1-3.76a42.4,42.4,0,0,1-1.2-6.53c-.36-2.32-1.74-4.3-1.7-6.64.05-2.58.08-5.15.08-7.73,0-5,1-9.8.82-14.77-.18-5.23-.06-10.49-.06-15.73,0-2.44.23-4.87.25-7.31a55.31,55.31,0,0,0-.88-6.91c-.27-2.36-.16-4.71-.56-7.07s-1.07-4.8-1.49-7.23c-.87-5-.28-10.37-.33-15.45,0-2.52-.48-4.94-.71-7.44s-.05-5.24-.08-7.84-.73-5.38-.78-8.11a30.31,30.31,0,0,0-1.37-7.73,72.77,72.77,0,0,1-1.67-8.64c-.45-2.87-1.5-5.67-1.5-8.59a1.59,1.59,0,0,0-3.17,0Z" transform="translate(-45.7 -16.92)"/><path class="cls-1" d="M274.2,695.49l-.48,0v3.17c.82,0,1.6.71,2.32,1a6.89,6.89,0,0,0,2.23.51c2,.18,3.94-.27,5.86.23,1.66.44,3.23,1.32,5,1.39a11.27,11.27,0,0,1,3.07.29,22.68,22.68,0,0,0,2.83.51c2.06.36,4,1.09,6.06,1.51a61.31,61.31,0,0,1,6,1.46,17.48,17.48,0,0,0,5.09.7c.78,0,1.57-.14,2.35-.1a14.39,14.39,0,0,1,2.62.8c2,.46,2.83-2.59.84-3.05-.93-.21-1.73-.73-2.68-.85a11.58,11.58,0,0,0-2.28,0,14.76,14.76,0,0,1-5.33-.64c-2-.64-4-1-6-1.44s-4.18-1.21-6.34-1.54c-1.81-.27-3.53-.94-5.38-.86s-3.57-1-5.4-1.35-3.79-.07-5.71-.19-3.2-1.6-5.08-1.58a1.59,1.59,0,0,0,0,3.17h.48c2,.08,2-3.08,0-3.16Z" transform="translate(-45.7 -16.92)"/><path class="cls-1" d="M307,767a34.48,34.48,0,0,1,.58-8.73,64.06,64.06,0,0,1,2.16-8,59.86,59.86,0,0,0,2.2-8.34c.68-2.88,1.6-5.68,2.08-8.61.45-2.75.69-5.53,1.16-8.28s1.29-5.45,1.59-8.25.32-5.77.9-8.59a7.77,7.77,0,0,1,1.24-3.38c.73-.91,1.64-1.66,2.3-2.64,1.51-2.2,1.48-4.91,2.17-7.39s2.52-4.51,3.25-7c.36-1.27.6-2.54,1.07-3.78a14.35,14.35,0,0,1,1.86-3.22,7.58,7.58,0,0,0,1.12-3,9.24,9.24,0,0,1,1.5-3.32c1.08-1.82.63-4.18.84-6.2a37.86,37.86,0,0,1,2.06-7.4A51,51,0,0,1,339,653a37,37,0,0,0,1.79-3.56,32.91,32.91,0,0,1,1.69-4.07c1.4-2.48,3.53-4.43,4.31-7.24s2.65-5.31,4-8a52.35,52.35,0,0,0,3.31-8.57c.44-1.53.5-3.11.82-4.67a15.39,15.39,0,0,0,.75-4.2c-.15-2-3.31-2-3.17,0a11.74,11.74,0,0,1-.63,3.36c-.32,1.56-.38,3.13-.82,4.67a46.52,46.52,0,0,1-3,7.82c-1.18,2.38-2.92,4.62-3.83,7.12a19,19,0,0,1-1.11,3.24c-.67,1.19-1.61,2.24-2.39,3.35-1.58,2.28-2.17,4.87-3.43,7.29-1.37,2.65-2.85,5.25-4.18,7.92a51.42,51.42,0,0,0-2.57,7.37c-.77,2.39-.6,4.76-.85,7.22a4.84,4.84,0,0,1-1.08,2.08,10.68,10.68,0,0,0-1.12,3.58,8.53,8.53,0,0,1-1.57,2.78,15.72,15.72,0,0,0-1.54,3.51c-.42,1.24-.58,2.57-1.07,3.79s-1.3,2.39-1.91,3.59c-1.25,2.45-1.28,5-2.11,7.59-.74,2.27-2.93,3.45-3.85,5.61a26,26,0,0,0-1.48,8,50.16,50.16,0,0,1-1.19,8.54,71.61,71.61,0,0,0-1.34,8.1,76.33,76.33,0,0,1-2,9.84c-.81,3.11-1.18,6.38-2.32,9.39a34.66,34.66,0,0,0-1.51,4.33c-.35,1.55-.65,3.09-1,4.64a37.38,37.38,0,0,0-.69,9.57,1.58,1.58,0,0,0,3.16,0Z" transform="translate(-45.7 -16.92)"/><path class="cls-1" d="M355.61,611.92c.13-3.6,1.5-6.91,2.64-10.28s1.92-7.1,3.19-10.57c.62-1.72,1.37-3.4,1.84-5.17s.76-3.59,1.31-5.34c1-3.36,2.19-7,4.12-10a13.78,13.78,0,0,0,2.08-3.82,9.85,9.85,0,0,0,.13-1.88,5.93,5.93,0,0,1,.78-2.2,11.64,11.64,0,0,0,1.3-4c.18-1.64.09-2.75,1-4.17a10.31,10.31,0,0,0,1.82-3.93,25.55,25.55,0,0,1,1-4.9c.6-1.54,1.6-2.94,2-4.56s.32-3.3.86-4.92a60.64,60.64,0,0,1,4.36-9.57c1.34-2.43,3-4.44,3.32-7.27a16.65,16.65,0,0,1,1.25-4.16,48.39,48.39,0,0,0,1.34-5,24.67,24.67,0,0,1,1.52-4.51,27.87,27.87,0,0,0,2.13-4.44,42.28,42.28,0,0,0,.86-4.46,37.23,37.23,0,0,1,1.49-5.5c.59-1.73,1.25-3.42,1.86-5.14a50.68,50.68,0,0,1,2.32-4.88,11.31,11.31,0,0,0,1-4.24,22.9,22.9,0,0,1,1.18-5.15,83.72,83.72,0,0,1,4.26-10.17c1.74-3.74,3.44-7.48,5.39-11.13,1-1.84,2-3.67,2.81-5.58s1.13-3.62,1.75-5.46,2-3.14,3.09-4.72c.91-1.38,1.44-3,2.4-4.33,1.12-1.58,2.25-1.69,4-1.84a5,5,0,0,0,3.83-2.19c1.23-1.62-1.52-3.2-2.73-1.6-.81,1.06-2.56.58-3.71.85a6.79,6.79,0,0,0-3.64,2.51,19.16,19.16,0,0,0-2,3.35,30.69,30.69,0,0,1-2.83,4.15,12.09,12.09,0,0,0-1.86,4.31,26.25,26.25,0,0,1-2,5.42c-1.71,3.43-3.6,6.75-5.19,10.24-2.88,6.31-6.6,12.72-7.73,19.66-.3,1.82-.23,3.34-1.13,5a38,38,0,0,0-2.17,4.67,72.49,72.49,0,0,0-3.35,10.34c-.29,1.52-.44,3.06-.83,4.55-.46,1.79-1.52,3.19-2.26,4.85-1.36,3.09-1.66,6.47-2.86,9.6a15.8,15.8,0,0,0-1.28,4.18,7,7,0,0,1-1,3.21,83.65,83.65,0,0,0-4.91,9.38,40.46,40.46,0,0,0-1.83,4.48c-.51,1.61-.37,3.32-.84,4.92s-1.37,2.85-1.93,4.31a24.12,24.12,0,0,0-1,4.9c-.27,1.59-1.28,2.64-2,4a9.12,9.12,0,0,0-.87,4.22c-.1,1.66-1,3-1.59,4.46-.56,1.32-.26,2.68-.74,3.95-.66,1.71-2.06,3.13-2.83,4.81s-1.51,3.66-2.17,5.52c-1.35,3.79-2,7.76-3.44,11.51-1.56,4-2.49,8.2-3.84,12.29-1.25,3.76-2.7,7.38-2.85,11.38-.07,2,3.09,2,3.17,0Z" transform="translate(-45.7 -16.92)"/><path class="cls-1" d="M82.55,320c-.06,2.54-2.32,4.91-3.58,7-1.47,2.44-3,4.74-3.75,7.53-.63,2.38-1.53,5.3-1.12,7.77a10.19,10.19,0,0,0,3.37,5.48c1.68,1.61,3.29,3.26,5,4.9a13,13,0,0,0,6.06,3.67,14.5,14.5,0,0,0,6.65,0,11.24,11.24,0,0,0,5.69-3.85c1-1.06,1.8-2.2,2.72-3.28s2-2,2.95-3.09a8.81,8.81,0,0,0,2-3.63c.32-1.36.2-2.77,1.13-3.91,1.28-1.56-1-3.81-2.24-2.24a7.45,7.45,0,0,0-1.47,2.6c-.3,1-.25,2.15-.59,3.17-.72,2.12-2.89,3.55-4.28,5.22s-2.83,3.76-4.72,5.1a8.64,8.64,0,0,1-5.65,1.08c-4.5-.36-7.12-4.45-10.17-7.27-1.3-1.2-2.9-2.55-3.24-4.38a8.71,8.71,0,0,1,.36-3.32,38.89,38.89,0,0,1,.91-3.95c.83-2.7,2.66-5.19,4.15-7.58s3-4.24,3.07-7c.06-2-3.1-2-3.16,0Z" transform="translate(-45.7 -16.92)"/><path class="cls-1" d="M79.63,326.83c0-2.86-3.78-4.49-5.85-5.72-1.73-1-3.27-2.34-4.88-3.52-2.08-1.51-4.17-3-6.25-4.48-6.15-4.43-13-9.69-13.44-17.87a12.79,12.79,0,0,1-.08-3.09,9.31,9.31,0,0,1,1.4-2.54c1-1.93,2.18-3.73,3.38-5.57a55,55,0,0,0,3.61-5.47c1-2,1.66-4.12,2.58-6.14,2-4.27,5.71-7.57,9.15-10.67.84-.77,1.7-1.52,2.57-2.25s1.66-1.15,2.36-1.85a6.65,6.65,0,0,0,1.39-2.59A16.9,16.9,0,0,1,77.64,252c2.28-3.22,3.84-7.21,6.64-10a4.4,4.4,0,0,1,3.87-1.53A9.25,9.25,0,0,1,92.33,242c1.18.83,2,1.87,1.25,3.27s-2.31,2.6-3.38,3.94c-1.43,1.8-2.67,3.8-4.06,5.65a27,27,0,0,0-3.35,5.77c-.89,2.06-1.6,4.19-2.47,6.25-.94,2.25-2.31,4.27-3.33,6.47-2.09,4.53-4.78,8.64-7.11,13-2.14,4-4.58,8-4.06,12.78a12,12,0,0,0,1.89,5.26c.57.88,1.25,1.68,1.84,2.55s1.08,2.11,1.77,3.07c1.18,1.63,3.15,2.19,4.26,3.89a6.06,6.06,0,0,0,3.57,3,15.23,15.23,0,0,1,5.33,2.93c1.79,1.35,3.65,2.6,5.44,4,2,1.47,3.7,3.22,5.63,4.74,1.69,1.34,3.72,1.85,5.32,3.38,3,2.91,5.56,6.92,9.72,8.37a9.41,9.41,0,0,0,2.79.35,26.45,26.45,0,0,1,3,.71c2,.34,2.85-2.71.85-3-1-.17-1.93-.58-2.92-.74a14,14,0,0,1-2.9-.32c-2.19-.81-3.94-2.84-5.47-4.52a32.22,32.22,0,0,0-4.69-4.58,16.11,16.11,0,0,0-2.7-1.41,12.84,12.84,0,0,1-2.84-2.31,103.29,103.29,0,0,0-11.52-8.64,14,14,0,0,0-2.49-1.37c-.71-.3-1.59-.35-2.26-.69s-1.18-1.46-1.67-2.14a7.82,7.82,0,0,0-2.25-2,5.57,5.57,0,0,1-2.19-2.22,26.22,26.22,0,0,0-1.83-2.94A11.25,11.25,0,0,1,69,298.87c-.3-2.68.54-4.68,1.69-7s2.26-4.5,3.51-6.68,2.69-4.28,3.84-6.53,2.1-4.53,3.33-6.71c2.29-4.09,3.35-8.72,5.69-12.78,1.23-2.13,2.9-4,4.31-6A53.94,53.94,0,0,1,95,248.64c2.32-2.68,3-5.93.13-8.51a11.38,11.38,0,0,0-8.75-2.84c-3.61.51-6,4.18-7.68,7.06-1.06,1.78-2.05,3.58-3.24,5.28-.72,1.05-1.52,2.05-2.19,3.13-.55.88-.67,2.1-1.42,2.82s-1.67,1.23-2.44,1.88c-1,.86-2,1.73-3,2.63-1.8,1.66-3.54,3.4-5.2,5.21a21.22,21.22,0,0,0-3.81,5.53c-.92,2-1.6,4.14-2.58,6.14s-2.64,3.9-3.89,5.91c-.58.92-1.19,1.8-1.79,2.7s-1,1.88-1.52,2.8a13.36,13.36,0,0,0-1.34,2.28,8.09,8.09,0,0,0-.3,3.17,24.93,24.93,0,0,0,.72,5.78,23.15,23.15,0,0,0,6.4,9.8,82.09,82.09,0,0,0,9.74,7.69c3.56,2.54,7,5.3,10.74,7.54.56.34,2.92,1.52,2.92,2.19a1.58,1.58,0,0,0,3.16,0Z" transform="translate(-45.7 -16.92)"/><path class="cls-1" d="M81.91,316.94c.47-3.65,2.25-7.06,4.1-10.19a27.16,27.16,0,0,0,2.11-4.08c.54-1.42.4-3.06,1.11-4.39a12.18,12.18,0,0,0,1.63-3.55,12.69,12.69,0,0,1,.36-2.29,7.15,7.15,0,0,1,1.33-2,14.61,14.61,0,0,0,1.35-1.78c.35-.6.46-1.3.78-1.91a10.17,10.17,0,0,1,1.51-1.71,10.16,10.16,0,0,0,1.51-2.51c.62-1.36,1.06-2.78,1.58-4.18.65-1.71,1.51-3.34,2.24-5a58.89,58.89,0,0,1,4.94-9.36,102.67,102.67,0,0,0,5.93-9.51,32.16,32.16,0,0,1,2-4.07,11.86,11.86,0,0,0,2-4c.88-3.33,3.44-6.26,5.2-9.18s4.55-4.44,6.21-7.21c1.84-3.06,3.2-6.34,5.42-9.18s4.78-5.5,7-8.43a22.59,22.59,0,0,0,4.06-9,14.22,14.22,0,0,1,1.37-4.45,28.13,28.13,0,0,1,3.13-4.08c1.15-1.27,2.7-2,4-3a11.37,11.37,0,0,0,2.47-3.57c.78-1.4,2-2.58,2.91-3.9a41,41,0,0,1,3.42-4.45c2.59-2.81,5.45-5.35,7.62-8.52S173,164.5,175,161.15,178,154,180,150.73c1-1.68,2.29-3.19,3.2-4.92s1.24-3.84,2-5.72c.63-1.48-1.21-3.43-2.48-1.92l-.16.11c-2,.46-1.15,3.51.84,3.05a2.73,2.73,0,0,0,1.55-.92l-2.48-1.92c-.72,1.71-1,3.57-1.8,5.25a36.23,36.23,0,0,1-2.88,4.51c-1.86,2.83-2.83,6-4.24,9-.75,1.62-1.77,3.08-2.64,4.64s-1.69,3.26-2.57,4.86a38,38,0,0,1-6.54,8.43,64.66,64.66,0,0,0-6.65,8,38.06,38.06,0,0,0-2.7,3.64,17.88,17.88,0,0,1-1.05,1.92,7.79,7.79,0,0,1-2.26,1.76,14.17,14.17,0,0,0-3.56,3.3,30.64,30.64,0,0,0-2.89,3.94c-1.63,2.95-1.49,6.6-3,9.66s-4.16,6.09-6.48,8.66A44.69,44.69,0,0,0,126.9,225a29,29,0,0,1-2.42,4.32c-1,1.29-2.43,2.22-3.53,3.46a25.5,25.5,0,0,0-2.74,4c-.95,1.6-2.06,3.11-3,4.71a15.42,15.42,0,0,0-1.83,4.08c-.42,1.56-1.33,2.52-2.11,3.88-.9,1.56-1.5,3.3-2.38,4.88s-1.94,3.21-3,4.77a73.92,73.92,0,0,0-5.64,9.29c-1.46,3.13-3,6.33-4.19,9.57-.64,1.78-1.15,3.75-2.44,5.18a11.91,11.91,0,0,0-1.56,1.77c-.49.8-.62,1.74-1.14,2.52-1,1.39-2.22,2.48-2.75,4.14a17.75,17.75,0,0,0-.37,2.28,7.24,7.24,0,0,1-1.11,2.49c-.88,1.48-.87,2.88-1.3,4.5a22.5,22.5,0,0,1-2.65,5.19,29.66,29.66,0,0,0-4,10.88c-.25,2,2.91,2,3.16,0Z" transform="translate(-45.7 -16.92)"/><path class="cls-1" d="M164.32,172.09c1.71-1.7,3.74-3.19,5.09-5.22.46-.68.83-1.4,1.29-2.08.17-.25-.22.25,0,0,.06-.07.12-.15.19-.22s.13-.13.2-.2l.1-.09-.13.11c.06,0,.16-.11.23-.15.29-.16,0,0,0,0a1.34,1.34,0,0,0,.31-.09l-.18,0h.19a1.58,1.58,0,0,0,0-3.16c-2.39,0-3.54,2.06-4.63,3.86l-.32.49c-.22.33.28-.32,0,0l-.28.33a19.07,19.07,0,0,1-1.32,1.38c-1,.93-2,1.8-2.91,2.74a1.58,1.58,0,1,0,2.24,2.23Z" transform="translate(-45.7 -16.92)"/><path class="cls-1" d="M90.57,298.34l-.5-.64-.69,2.64c.76-.23,2.8,2.58,3.37,3.09,1.51,1.38,3.29,2.39,4.81,3.75,2.93,2.61,6.07,4.91,8.87,7.68a38.22,38.22,0,0,0,9.6,7.06c3.14,1.61,6.57,3.19,8.8,6,1.25,1.6,3.48-.66,2.24-2.24-2.39-3-6.08-4.8-9.45-6.52-4.07-2.07-7.21-5-10.5-8.07-1.58-1.51-3.34-2.71-5-4.07s-3-2.79-4.72-4a25.69,25.69,0,0,1-4.37-4c-1.18-1.28-2.64-2.37-4.46-1.82a1.6,1.6,0,0,0-.69,2.64c.16.22.33.43.5.65,1.24,1.6,3.47-.65,2.23-2.24Z" transform="translate(-45.7 -16.92)"/><path class="cls-1" d="M116.82,341.33c2.46.29,4.27-1.51,5.38-3.5,1.48-2.65,3.22-5.17,4.24-8.05a77,77,0,0,1,3.31-8.92c1.43-2.86,3.24-5.51,4.51-8.46a32.75,32.75,0,0,1,4.49-8.18c2.06-2.54,4.08-5.15,6.3-7.57a60.73,60.73,0,0,0,5.63-7c.81-1.18,1.7-2.34,2.42-3.58s1.2-2.91,2.06-4.24c1.57-2.44,3.43-4.53,4.76-7.16s2.17-5.41,3.61-8,2.59-5.45,4-8.11,2.69-5.63,4.06-8.46a92.34,92.34,0,0,1,4.78-8.15c1.63-2.63,3-5.42,4.51-8.1a80.84,80.84,0,0,1,10.85-15.38,16.74,16.74,0,0,0,2.68-3.48c.73-1.34,1.2-2.8,2-4.1a25.93,25.93,0,0,1,3.13-3.5,41.67,41.67,0,0,0,3.24-4.24c2.09-2.89,4.36-5.65,6.43-8.55a21.44,21.44,0,0,0,2.44-4.36c.19-.47.63-2.53.91-2.53a1.58,1.58,0,0,0,0-3.16c-2.38,0-3,1.92-3.61,3.85-.85,2.85-2.93,5.28-4.71,7.61-2,2.6-3.86,5.29-5.84,7.88-1.71,2.24-4,3.87-5.29,6.41-.64,1.22-1.07,2.55-1.8,3.71a20.49,20.49,0,0,1-2.66,3.08,53.27,53.27,0,0,0-5.34,7.07c-1.81,2.65-3.59,5.32-5.19,8.09s-3,5.63-4.64,8.34a84.24,84.24,0,0,0-4.76,8.16c-1.35,2.85-2.57,5.68-4.08,8.45s-2.55,5.46-4,8.11-2.26,5.37-3.6,8a34.66,34.66,0,0,1-2,3.49c-.86,1.26-1.94,2.36-2.73,3.66s-1.1,2.57-1.79,3.8-1.69,2.56-2.55,3.81a81.7,81.7,0,0,1-6.12,7.42c-2.11,2.42-4.16,5-6.14,7.5-2.15,2.78-3.26,5.91-4.73,9.05-1.58,3.38-3.72,6.45-5.19,9.9-1.27,3-1.79,6.31-3.33,9.16-.88,1.63-1.92,3.16-2.8,4.78-.63,1.16-1.32,2.44-2.82,2.26-2-.24-2,2.93,0,3.16Z" transform="translate(-45.7 -16.92)"/><path class="cls-1" d="M167,124.66a1.58,1.58,0,0,0,0-3.16,1.58,1.58,0,0,0,0,3.16Z" transform="translate(-45.7 -16.92)"/><path class="cls-1" d="M174.25,127.24c1.18,1.17,2.43,2.3,3.54,3.55s2.12,2.8,3.15,4.21c2,2.67,3.5,5.53,5.33,8.28.8,1.22,1.81,2.25,2.67,3.43a27,27,0,0,1,2.4,4.35,84.24,84.24,0,0,0,5.1,8.63c3.76,5.95,6.27,12.38,8.81,18.91,1.16,3,3,5.59,4.53,8.37s2.62,5.67,3.9,8.53a24.85,24.85,0,0,1,1.71,4.3c.31,1.31-.19,3,.8,4.1.18.2,1.12.69,1,.57-.27-.29,0,.58,0,.68.05.34.11.65.18,1,.33,1.74.65,3.47,1,5.2,1.49,7.06,4.34,13.85,6.47,20.74a118.42,118.42,0,0,1,4.71,20.26c.43,3.43,1.06,6.87,1.4,10.3a37.56,37.56,0,0,0,1.81,9.75c1.35,3.65,2.92,7.14,3.53,11a73.19,73.19,0,0,1,.58,12c0,3.74-.23,7.48-.19,11.22a24.6,24.6,0,0,0,.57,5.06c.4,1.78.9,3.56.24,5.34l2.64-.7-.12-.17c-.07-2-3.23-2-3.17,0a3.1,3.1,0,0,0,1.06,2.41,1.6,1.6,0,0,0,2.64-.7c1.13-3-.29-6-.6-9-.34-3.35.06-6.78.07-10.14,0-7.08.4-14.43-1.93-21.23-1.1-3.23-2.75-6.33-3.4-9.7s-.78-6.73-1.3-10.06c-.54-3.55-.79-7.14-1.47-10.67s-1.54-7.1-2.49-10.59c-1.92-7-4.4-13.87-6.62-20.81a83.18,83.18,0,0,1-2.39-10.36c-.23-1.22-.15-2.5-1.29-3.28-.59-.4-.61,0-.48-.68a6,6,0,0,0-.24-2.38c-.75-3-2.39-6.05-3.63-8.92a89.64,89.64,0,0,0-4.8-8.83c-1.72-3-2.66-6.28-4-9.44s-2.7-6.4-4.34-9.43c-1.88-3.47-4.29-6.61-6.2-10.05-.85-1.53-1.53-3.14-2.33-4.7A25.42,25.42,0,0,0,190,143.1c-2.33-2.82-3.85-6.28-6-9.23-1.09-1.48-2.1-3-3.26-4.47a57.19,57.19,0,0,0-4.27-4.4,1.58,1.58,0,0,0-2.23,2.24Z" transform="translate(-45.7 -16.92)"/><path class="cls-1" d="M205.77,175.2c1,2.71,2.34,5.37,2.89,8.24.26,1.42.21,2.89.46,4.32s1,2.73,1.21,4.16a1.58,1.58,0,1,0,3-.84c-.25-1.43-1-2.72-1.21-4.16s-.2-2.89-.47-4.32c-.54-2.87-1.85-5.53-2.88-8.24a1.63,1.63,0,0,0-1.94-1.11,1.6,1.6,0,0,0-1.11,1.95Z" transform="translate(-45.7 -16.92)"/><path class="cls-1" d="M195.09,98.6c3.66,2.13,7.47,4,11.09,6.2a117.65,117.65,0,0,1,9.82,7.29,47.65,47.65,0,0,0,4.82,3.29,37.17,37.17,0,0,1,5.25,3.32c1.42,1.19,2.72,2.42,4.25,3.47s3.1,2,4.59,3.06c3.2,2.33,5.54,5.75,8.44,8.44s6.55,5.15,8.69,8.56,4.62,6.77,6.83,10.23c1.13,1.77,2.07,3.64,3.22,5.39s2.33,3.26,3.49,4.88c2.38,3.32,4,7,6,10.55,1,1.82,1.55,3.85,2.47,5.72,1,2,2.18,4,3.25,6,1.84,3.44,4.52,6.4,6,10,1.66,4,3.77,7.84,5.28,11.89s2.49,7.95,4.41,11.69a15.66,15.66,0,0,1,1.68,5,35.94,35.94,0,0,0,1.73,6.35c1.47,4.1,3.11,8.17,4.84,12.16a42.39,42.39,0,0,1,2.18,5.64c.59,2.11.54,4.46.87,6.64a98.44,98.44,0,0,0,3,14.32,21.19,21.19,0,0,1,1.05,6.41,59.92,59.92,0,0,0,.85,7.2,82.37,82.37,0,0,0,2.88,14.25c.85,2.73,1.77,7.43,4.65,8.81,1.83.87,3.44-1.86,1.6-2.73-1.08-.52-1.64-2.24-2-3.3-.7-1.91-1.29-3.88-1.84-5.83a94.22,94.22,0,0,1-2.31-12.81,44.31,44.31,0,0,1-.64-5.86,19,19,0,0,0-.79-5.82,55.56,55.56,0,0,1-1.64-6.46c-.41-2.13-1.12-4.19-1.37-6.35-.48-4.19-.71-8.37-2.28-12.31-1.65-4.12-3.41-8.18-5-12.32a57.13,57.13,0,0,1-1.94-5.56c-.53-1.9-.63-3.92-1.23-5.79s-1.68-3.41-2.44-5.15a64.32,64.32,0,0,1-2.18-6.21,122.65,122.65,0,0,0-5.09-11.84c-.84-1.86-1.47-3.8-2.46-5.59s-2.26-3.55-3.41-5.31c-1-1.52-1.8-3.1-2.64-4.71a59.2,59.2,0,0,1-3.17-6.32,32,32,0,0,0-2.47-5c-1.08-1.85-1.8-3.88-2.89-5.73-2.06-3.49-4.8-6.52-6.82-10-2.21-3.84-4.81-7.34-7.28-11a45.66,45.66,0,0,0-2.74-4.28,41.72,41.72,0,0,0-4.61-4.6,79.61,79.61,0,0,1-8.52-8.31c-2.8-3.24-6.49-5-9.82-7.61-1.66-1.28-3.09-2.77-4.86-3.91-2-1.25-4.05-2.3-6-3.63-3.83-2.65-7.22-5.88-11.16-8.38s-8-4.47-12-6.78a1.58,1.58,0,0,0-1.6,2.73Z" transform="translate(-45.7 -16.92)"/><path class="cls-1" d="M318,299.46l.23,0-.42.06a1.61,1.61,0,0,1,.31,0l-.42-.06a2,2,0,0,1,.33.09l-.38-.16a2.92,2.92,0,0,1,.48.29,3.92,3.92,0,0,1-.32-.25,10,10,0,0,0,1.82,1.5,2.57,2.57,0,0,0,2,.18,3.7,3.7,0,0,0,1.65-1.24,1.74,1.74,0,0,0,.47-1.12,1.63,1.63,0,0,0-.47-1.12,1.56,1.56,0,0,0-1.12-.46,1.49,1.49,0,0,0-1.11.46,4.19,4.19,0,0,1-.58.61l.32-.25a1.59,1.59,0,0,1-.35.22l.38-.16a1.11,1.11,0,0,1-.26.07l.42-.05h-.24l.42.05a.9.9,0,0,1-.27-.07l.38.16a1.73,1.73,0,0,1-.41-.25l.32.25c-.51-.4-.94-.89-1.46-1.28a2.92,2.92,0,0,0-2.54-.47,1.58,1.58,0,0,0,.84,3Z" transform="translate(-45.7 -16.92)"/><path class="cls-1" d="M213,104.43c2.43-1.9,3.93-4.56,5.42-7.21a28.1,28.1,0,0,1,2.29-3.6A34.18,34.18,0,0,1,224.36,90,25.37,25.37,0,0,0,230,81.81c1.41-3,2.81-6,4.37-9,.73-1.39,1-3,1.73-4.36s2-2.55,2.77-4,1-3.13,1.79-4.6a36.54,36.54,0,0,1,2.92-4.64,38.81,38.81,0,0,1,3.2-3.9c1.14-1.24,1.93-2.67,3-4s2.38-2.12,3.46-3.28,1.67-2.64,2.93-3.42,3.21-.45,4.47-.23A12.52,12.52,0,0,1,265,42.24c2.87,1.75,5.7,3.63,8.44,5.59a52.49,52.49,0,0,1,7.78,6.64c2.35,2.49,4.35,5.19,4.35,8.76a15.84,15.84,0,0,1-.57,4.22,11.69,11.69,0,0,1-1.09,2.07,6.74,6.74,0,0,0-.52,2.34C283,75.32,280.52,78,279,81c-1.4,2.8-2,5.89-3.21,8.77-1.29,3.07-3.67,5.2-6,7.53a36.06,36.06,0,0,0-3.32,3.78,23,23,0,0,0-2.4,4.58,81.61,81.61,0,0,1-6.06,10.79c-2.31,3.58-4.44,7.22-6.54,10.92-1,1.73-2.15,3.33-3.16,5-.28.48-.49,1-.74,1.48a9.1,9.1,0,0,1-.44.81c-.08.13-.17.26-.26.38-.26.25-.29.29-.09.13a1.58,1.58,0,0,0,0,3.16c2.73,0,3.47-3.18,4.71-5,2.21-3.3,4-6.84,6-10.24s4.36-6.7,6.35-10.17c1-1.68,1.86-3.39,2.67-5.15a27.91,27.91,0,0,1,2.5-4.9c1.93-2.64,4.53-4.7,6.66-7.16,2.31-2.65,3.39-5.8,4.44-9.1a26,26,0,0,1,1.86-4.66c.93-1.69,2.06-3.26,2.95-5a12.19,12.19,0,0,0,1.48-4.32,5,5,0,0,1,.81-2.53,6.88,6.88,0,0,0,.86-2.27,15.63,15.63,0,0,0-.52-9.84c-1.4-3.19-4.1-5.87-6.65-8.17a76,76,0,0,0-8.6-6.56c-2.88-1.94-5.84-4.21-9.12-5.42-2.57-1-6.5-1.4-8.9.18a13.51,13.51,0,0,0-2.92,3.25c-1.13,1.44-2.73,2.41-3.91,3.81s-1.84,2.73-3,4A44.42,44.42,0,0,0,241,53.37,41.82,41.82,0,0,0,238.1,58c-.9,1.67-1.21,3.6-2.14,5.24s-2.39,3-3.14,5c-.36.93-.6,1.9-1,2.79s-1,1.68-1.43,2.55c-1.83,3.58-3.08,7.48-5.29,10.87s-5.74,5.45-7.95,8.82c-2,3.1-3.37,6.64-6.37,9-1.6,1.26.65,3.48,2.23,2.24Z" transform="translate(-45.7 -16.92)"/><path class="cls-1" d="M282.14,32.6l-.44.06c.59.78,1.19,1.55,1.79,2.33,1.69-2.23,2.49-5.08,4.45-7.11,1.09-1.12,2.35-2.06,3.44-3.18.85-.85,1.68-2.54,2.85-3a2,2,0,0,1,2,1c.38.87-.54,2.46-.93,3.2a72.8,72.8,0,0,1-4.9,7.27c-1,1.43-1.82,3-2.75,4.43a12.08,12.08,0,0,0-2.07,4.45,1.64,1.64,0,0,0,1.1,2,1.61,1.61,0,0,0,1.95-1.11c.25-1.66,1.35-3,2.18-4.39s1.82-3,2.86-4.48c1.95-2.69,4.24-5.5,5.32-8.68a5.24,5.24,0,0,0-.05-4.25,5.77,5.77,0,0,0-3.77-2.59,4.54,4.54,0,0,0-4,1.6c-.59.6-1.08,1.3-1.65,1.93a26.29,26.29,0,0,1-2.17,2.05,17.43,17.43,0,0,0-3.78,4.43,44.37,44.37,0,0,1-2.84,4.86c-.95,1.26.62,2.48,1.79,2.32l.44-.06a1.6,1.6,0,0,0,1.11-1.94,1.64,1.64,0,0,0-1.95-1.11Z" transform="translate(-45.7 -16.92)"/><path class="cls-1" d="M268.94,40.21v-.76a1.17,1.17,0,0,0-.14-.61,1.18,1.18,0,0,0-.33-.51A1.16,1.16,0,0,0,268,38a1.19,1.19,0,0,0-.61-.14l-.42.06a1.59,1.59,0,0,0-.7.4l-.25.32a1.75,1.75,0,0,0-.22.8v.76a1.27,1.27,0,0,0,.14.61,1.08,1.08,0,0,0,.33.51,1.25,1.25,0,0,0,.51.33,1.16,1.16,0,0,0,.61.13l.42,0a1.57,1.57,0,0,0,.69-.41l.25-.32a1.6,1.6,0,0,0,.22-.8Z" transform="translate(-45.7 -16.92)"/><path class="cls-1" d="M268.47,41.33c.82-1,1.57-2.13,2.34-3.2l.57-.78.29-.39c.11-.15.13-.17,0-.06l.15-.18c.4-.51.81-1,1.25-1.46l.62-.6.31-.26c.31-.28-.22.14,0,0,.39-.24.77-.51,1.18-.75s.9-.5,1.37-.71c.15-.07.31-.13.06,0l.31-.12c.17-.06.86-.17.27-.11a1.62,1.62,0,0,0,1.58-1.58,1.6,1.6,0,0,0-1.58-1.58,8.69,8.69,0,0,0-3.39,1.28,12.64,12.64,0,0,0-2.66,1.93A25.22,25.22,0,0,0,268.46,36c-.41.56-.8,1.12-1.2,1.67-.2.29-.4.57-.61.85l-.25.35-.16.21a1.63,1.63,0,0,0,0,2.24,1.59,1.59,0,0,0,2.23,0Z" transform="translate(-45.7 -16.92)"/><path class="cls-1" d="M276.12,33c1.69,1.7,3.23,3.55,4.89,5.28a11.63,11.63,0,0,0,1.21,1.12,7,7,0,0,1,1.25,1.11c-.14-.17,0,0,0,.1l.2.3c.12.21.24.42.37.62a5.53,5.53,0,0,0,1.15,1.35,1.62,1.62,0,0,0,2.24,0,1.6,1.6,0,0,0,0-2.24,3.19,3.19,0,0,1-.56-.54c.13.17,0,0-.06-.1s-.13-.21-.19-.31a12.2,12.2,0,0,0-1-1.42c-.71-.84-1.7-1.42-2.46-2.23-1.66-1.73-3.2-3.58-4.89-5.28a1.6,1.6,0,0,0-2.24,0,1.62,1.62,0,0,0,0,2.24Z" transform="translate(-45.7 -16.92)"/><path class="cls-1" d="M330,304a13.28,13.28,0,0,0,3.48.7c1.35.19,2.31,1.17,3.62,1.49s2.42,0,3.61.22a8.75,8.75,0,0,1,2.84,1.51,10.35,10.35,0,0,0,3.33,1.38,18.18,18.18,0,0,1,3.9,1.6c2.47,1.2,5.6,1.31,8.29,1.81a38.34,38.34,0,0,0,8.69.42c3-.12,5.69,1.05,8.63,1.42s5.69,1.93,8.51,3a85.81,85.81,0,0,0,8.58,2.78,54.27,54.27,0,0,1,8.72,2.78,16.47,16.47,0,0,0,3.64,1.3c1.47.25,2.94,0,4.31.7,1.11.58,2.08,1.35,3.24,1.84a29.42,29.42,0,0,0,4,1.24,37,37,0,0,0,7.85,1.69,15.69,15.69,0,0,1,4.1.53,26.42,26.42,0,0,0,4.09,1,13.58,13.58,0,0,1,3.25,1.28,8,8,0,0,0,3.82.29,7.1,7.1,0,0,1,3.74.88,23.63,23.63,0,0,0,3.71.91,26.7,26.7,0,0,1,3.27,1.49c1.31.53,2.67.89,4,1.29,2.75.82,5.25,2.05,8.1,2.56,1.34.23,2.71.33,4,.65a16.29,16.29,0,0,0,3.86.69,29,29,0,0,1,4.17,0c1.31.2,2.57.62,3.89.74,3.14.27,6.2-.12,9.34.44,3,.54,5.91,1.11,8.83,1.8a33.45,33.45,0,0,0,4.09.76c1.58.18,3.12-.07,4.7,0,2.85.11,5.5,1.46,8.39,1.63s5.85-.18,8.77,0c3.18.19,6.38.63,9.54,1a70.15,70.15,0,0,0,9.28.42c6.1,0,12.29.43,18.38,0,3-.22,6-.86,9-.82a21.61,21.61,0,0,0,4.25-.23c1.43-.25,2.74-.91,4.17-1.19s2.76-.1,4.13-.28a23.85,23.85,0,0,0,4.32-1.12c2.85-.9,5.65-1.94,8.47-2.94s5.44-1.89,8.23-2.62,5.85-1.13,8.75-1.84a60.29,60.29,0,0,0,8.59-2.71c2.5-1,4.72-2.55,7.16-3.67a56.44,56.44,0,0,1,9-2.84c1.43-.39,2.85-.79,4.29-1.11s2.76-.35,4.14-.57c2.64-.42,4.42-2.25,6.77-3.32a65.18,65.18,0,0,1,8.24-2.95c1-.31,2-.86,3.1-.47a20.61,20.61,0,0,0,2.79,1.25c2,.41,2.84-2.64.84-3.05a15,15,0,0,1-2.58-1.18,4.81,4.81,0,0,0-3.11-.18,52.65,52.65,0,0,0-7.72,2.5c-1.24.5-2.5,1-3.71,1.6s-2.31,1.63-3.59,2.24a12.5,12.5,0,0,1-3.94.74,31.94,31.94,0,0,0-4.22.88c-2.95.77-5.9,1.58-8.81,2.52a44.67,44.67,0,0,0-7.33,3.48c-5.42,2.93-11.52,3.84-17.46,5.14-5.65,1.24-11,3.45-16.47,5.3a29.47,29.47,0,0,1-8.57,1.9c-2.93.12-5.5,1.55-8.46,1.58-1.49,0-3-.1-4.46,0s-3.08.51-4.63.66a76.58,76.58,0,0,1-9.09.2c-6.25-.13-12.68.38-18.89-.4-3-.38-6.11-.78-9.17-1.06s-5.91,0-8.88,0-5.46-1.19-8.32-1.57a36,36,0,0,0-4.41,0,22.62,22.62,0,0,1-5.09-.82c-2.92-.7-5.88-1.26-8.84-1.78a55,55,0,0,0-8.7-.46,22.18,22.18,0,0,1-3.89-.61,16.1,16.1,0,0,0-4.16-.17,11.48,11.48,0,0,1-4-.46c-1.4-.38-2.85-.47-4.28-.72-2.93-.52-5.54-1.8-8.37-2.64A27.66,27.66,0,0,1,452,333.1a16.47,16.47,0,0,0-3.36-1.47,17,17,0,0,1-3.44-.87,9.06,9.06,0,0,0-3.5-1.06c-1.34,0-2.69.47-4-.07a14.37,14.37,0,0,0-3.33-1.32c-2.69-.43-5.21-1.47-7.95-1.58a21.74,21.74,0,0,1-3.95-.36c-1.43-.31-2.79-.87-4.2-1.25a21.31,21.31,0,0,1-4-1.26c-1.15-.56-2.14-1.4-3.34-1.89a10.9,10.9,0,0,0-3.76-.61,14.24,14.24,0,0,1-4.65-1.58,54.3,54.3,0,0,0-8.48-2.6,82.13,82.13,0,0,1-8.26-2.7c-2.74-1-5.33-2.49-8.24-2.94a23.79,23.79,0,0,1-4.27-.79A13.23,13.23,0,0,0,369,310c-1.4,0-2.81.16-4.21.2a23.62,23.62,0,0,1-5.16-.54c-2.73-.51-5.79-.63-8.25-2a12.42,12.42,0,0,0-3.33-1.31,10.36,10.36,0,0,1-3.59-1.6,9.21,9.21,0,0,0-2.61-1.29c-1.27-.34-2.57,0-3.81-.28s-2.07-1.17-3.27-1.42a22.12,22.12,0,0,1-3.89-.76c-1.89-.77-2.71,2.29-.84,3Z" transform="translate(-45.7 -16.92)"/><path class="cls-1" d="M427.77,425.72a30.66,30.66,0,0,0,5.82-.44,45.07,45.07,0,0,0,6.79-2.17,112.9,112.9,0,0,1,12.32-4.28c4.14-1,8.18-1.76,12.13-3.42s8.17-2.63,12.18-4.15a16.57,16.57,0,0,1,5.18-1.42,28.9,28.9,0,0,0,6.37-1.21c2-.54,4-.84,5.95-1.28,2.18-.49,4.31-1,6.52-1.42s4.29-1,6.46-1.29c2.43-.36,4.83-.67,7.22-1.23,1.78-.42,3.55-.31,5.35-.56,2.13-.29,4.08-1.49,6.22-1.61s3.86.12,5.87-.18c2.38-.36,4.77-.46,7.15-.86,4.41-.74,8.82-1.67,13.25-2.3a67.34,67.34,0,0,1,13.09-.16c3.89.22,8,.54,11.73-.82a43.45,43.45,0,0,1,5.74-1.45c2.23-.51,4.44-1.1,6.65-1.66,4.4-1.1,8.72-2.42,13.11-3.54a75.42,75.42,0,0,0,12.26-4.1c2-.88,3.92-1.84,5.88-2.77s4.14-1.66,6.11-2.71c1.69-.9,3.46-1.66,5.1-2.65a11.43,11.43,0,0,0,2.49-1.94,10.34,10.34,0,0,1,2.23-2.15c.9-.54,1.93-.85,2.86-1.32,1.19-.61,2.28-1.39,3.45-2,2-1.07,4-2.06,6-3.2a30.32,30.32,0,0,0,5.5-3.91c1.54-1.42,2.93-3,4.47-4.43,1.81-1.67,3.86-3.08,5.75-4.66s3.88-3.35,5.68-5.18a1.58,1.58,0,0,0-2.24-2.23,124.31,124.31,0,0,1-10.24,8.8c-3,2.48-5.39,5.66-8.73,7.81s-7.2,4-10.77,6c-1.57.88-3.33,1.32-4.7,2.55-.68.61-1.17,1.39-1.83,2a11.06,11.06,0,0,1-2.36,1.58c-3.37,1.84-6.91,3.22-10.37,4.88a85.94,85.94,0,0,1-12.11,5.14c-4.45,1.34-9,2.4-13.47,3.66-4.18,1.19-8.45,2.35-12.71,3.19a39.79,39.79,0,0,0-5.06,1.38,18.7,18.7,0,0,1-6.32.72c-4.09-.07-8.15-.39-12.25-.33-4.42.06-8.65,1-13,1.72-4.5.76-9,1.27-13.49,1.91-1.89.28-3.78-.15-5.68.11-2.14.3-4.07,1.47-6.24,1.62-4.2.29-8.27,1.17-12.44,1.8s-8.5,1.68-12.7,2.64c-2.07.48-4.18.79-6.23,1.35a29.17,29.17,0,0,1-6,1.13,21.09,21.09,0,0,0-6.1,1.7c-2.16.79-4.38,1.44-6.57,2.14s-4.27,1.47-6.36,2.36a38.75,38.75,0,0,1-7,2,95.78,95.78,0,0,0-13.84,4.26c-2.28.86-4.56,1.74-6.89,2.46a24.08,24.08,0,0,1-7.17.9,1.58,1.58,0,0,0,0,3.16Z" transform="translate(-45.7 -16.92)"/><path class="cls-1" d="M600.71,332.55c-1.43-1.74-3.37-3-4.76-4.76s-2.33-4.23-3.42-6.34c-1.91-3.74-3.89-7.86-6.94-10.82a66,66,0,0,1-4.86-4.75c-1.69-2-3.42-3.94-5.26-5.82s-3.5-3.66-5.22-5.51-3.58-3.45-5.36-5.2a70.85,70.85,0,0,1-4.65-5.58,69.68,69.68,0,0,0-5.06-5.25c-1.73-1.65-3.45-3.3-5.13-5s-3.77-3.36-5.48-5.21-3.34-3.72-4.92-5.65a50.87,50.87,0,0,0-4.48-5.43c-1.78-1.63-3.75-3-5.44-4.69a28.15,28.15,0,0,1-3.92-5.8c-1.19-2-3-3.46-4.2-5.47-1-1.7-2-3.42-2.9-5.15-1.87-3.39-3.67-6.82-5.32-10.33-3.23-6.91-5.91-14.25-6.84-21.86a45.53,45.53,0,0,1,3.14-23.24c3.75-8.95,10.12-16.52,17.11-23.14a122.11,122.11,0,0,1,46.53-27,132.72,132.72,0,0,1,26.14-5.64c9.81-1.08,20.29-1.68,29.7,1.8,4.77,1.77,9.18,4.39,13.65,6.78,4.21,2.25,8.43,4.48,12.57,6.87,8.19,4.72,16,10.13,22.4,17.15,11,12.05,14.42,28,13.52,43.9-.95,16.58-5.77,32.72-10.66,48.49-2.28,7.39-4.67,14.75-6.7,22.21-1.35,4.92-2.89,9.81-4,14.78s-2.43,9.95-3.91,14.91a53.43,53.43,0,0,0-2.64,14.15h3.16v-.5a1.58,1.58,0,0,0-3.16,0v.5a1.58,1.58,0,0,0,3.16,0c.11-5.23,1.59-10.24,3.1-15.2.74-2.44,1.5-4.87,2.12-7.34.66-2.67,1.11-5.39,1.79-8.06,2.2-8.59,4.71-17.12,7.34-25.59,5-16.21,10.39-32.45,12.68-49.32,2.15-15.9,1.31-32.77-7.24-46.8-10-16.32-27.56-25.15-43.82-33.9-4.59-2.47-9.17-5-14.15-6.65a51.14,51.14,0,0,0-15.66-2.12,134.43,134.43,0,0,0-78,25.83c-14.55,10.92-28.63,25.83-31.25,44.57-2.23,16,4.26,31.27,11.75,45q1.43,2.6,2.88,5.17a35,35,0,0,0,4,5.45c1.48,1.75,2.15,4,3.58,5.79a30.3,30.3,0,0,0,5.06,5,19.54,19.54,0,0,1,2.92,2.45c.82.94,1.49,2,2.29,2.95,1.7,2,3.36,4,5.09,5.95s3.53,3.48,5.34,5.22,3.55,3.54,5.36,5.27,3.67,3.48,5.36,5.36,2.9,3.87,4.57,5.63,3.74,3.48,5.52,5.32,3.56,3.86,5.41,5.73c3.53,3.6,6.65,7.49,10.39,10.87,3.27,2.95,5.35,7.54,7.26,11.44a29.24,29.24,0,0,0,3.47,6.08c1.43,1.72,3.3,3,4.73,4.73,1.29,1.57,3.52-.68,2.24-2.24Z" transform="translate(-45.7 -16.92)"/><path class="cls-1" d="M552.09,280.05c1.52,1.52,3.1,3,4.7,4.39l2.33,2.07a13.89,13.89,0,0,1,1.1,1.07l.12.14c-.1-.12.14.18.16.21.13.2.26.41.38.62l2.16-2.16-.67-.46a1.59,1.59,0,0,0-2.16.57,1.62,1.62,0,0,0,.57,2.16l.67.46a1.57,1.57,0,0,0,1.91-.25,1.62,1.62,0,0,0,.25-1.91c-1.05-1.9-2.87-3.23-4.46-4.64s-3.27-2.95-4.82-4.51a1.58,1.58,0,0,0-2.24,2.24Z" transform="translate(-45.7 -16.92)"/><path class="cls-1" d="M547.85,279.54a35.2,35.2,0,0,1,6.28,4.81c1.46,1.5,2.77,3.81,5.16,3.77a1.59,1.59,0,1,0,0-3.17h-.17c-.12,0-.08,0,.13,0a1.55,1.55,0,0,0-.23-.07c.33.09,0,0-.07-.06s-.33-.22-.17-.1-.14-.12-.17-.14l-.26-.25c-.19-.19-.38-.38-.56-.59-.65-.73-1.25-1.5-2-2.18a43,43,0,0,0-6.37-4.77,1.59,1.59,0,0,0-2.16.56,1.61,1.61,0,0,0,.56,2.17Z" transform="translate(-45.7 -16.92)"/><path class="cls-1" d="M628.42,378.53c-.31,3,1.35,6.21,2.44,8.89,1.28,3.16,2.41,6,5.15,8.2a26.11,26.11,0,0,0,9.11,4.4c3.5,1,7.4,2.18,11.06,2.31,6.73.24,12.89-4.17,16.93-9.24a18.38,18.38,0,0,0,2.52-4.1,8.75,8.75,0,0,0,.71-2.28,22.66,22.66,0,0,1,.11-2.74,21.55,21.55,0,0,1,.9-2.11,11.87,11.87,0,0,0,.58-2.56c.25-1.76.51-3.51.78-5.27.66-4.29-1-8.29-1.88-12.41a20,20,0,0,0-1.8-5.49c-1-1.79-2.12-3.3-2.6-5.31a1.52,1.52,0,0,0-1.1-1.1l-.62-.09c-2-.28-2.85,2.76-.84,3.05l.62.09-1.11-1.11c.72,3,2.94,5.26,3.8,8.2.4,1.37.6,2.79,1,4.18.43,1.72,1,3.4,1.31,5.16.58,3.2-.14,6.59-.64,9.78a23.34,23.34,0,0,1-1.34,3.93c-.52,1.55,0,3.14-.66,4.67a19.24,19.24,0,0,1-5.46,6.91,18.39,18.39,0,0,1-8,4.41c-3.29.72-6.5-.24-9.69-1a36.14,36.14,0,0,1-9.24-3.14,11.67,11.67,0,0,1-6.18-7.35c-1-2.6-3-6-2.67-8.9.21-2-3-2-3.16,0Z" transform="translate(-45.7 -16.92)"/><path class="cls-1" d="M613.88,334.47c.84-1.87,1.27-3.85,2-5.75s1.83-3.86,2.68-5.82A49.09,49.09,0,0,0,622,311.26c.31-1.87.32-3.79.72-5.64a30.4,30.4,0,0,0,.55-5.87,22.34,22.34,0,0,0-.41-6,39.13,39.13,0,0,0-2.16-5.29c-1.55-3.69-1.77-7.79-2.82-11.61-.57-2.07-1.4-4.08-1.87-6.16-.21-.95-.31-1.92-.58-2.86s-.77-1.81-1.1-2.76c-.63-1.76-.78-3.72-1.25-5.53a53.89,53.89,0,0,0-2.06-6.3c-1.4-3.5-2.67-7.25-4.74-10.42-1-1.46-1-3.15-1.88-4.6-.49-.81-1.2-1.45-1.74-2.22s-.92-1.74-1.41-2.59-1-1.52-1.43-2.35a13.15,13.15,0,0,0-1.09-2.23c-1.14-1.56-2.56-1.58-4.31-1.78l1.52,1.16c0-.21-.09-.42-.13-.64-.41-2-3.46-1.14-3,.84,0,.22.09.43.13.64a1.63,1.63,0,0,0,1.53,1.16,3.89,3.89,0,0,1,1.52.21c.51.33.76,1.33,1,1.84.62,1.42,1.58,2.65,2.29,4a13,13,0,0,0,1.25,2,8.73,8.73,0,0,1,1.45,1.92c.54,1.3.59,2.55,1.37,3.8A62.31,62.31,0,0,1,608,254.09a80.74,80.74,0,0,1,3.1,11.09c.39,1.61,1.24,3,1.57,4.65a57,57,0,0,0,1.61,5.89c1.14,3.69,1.6,7.51,2.61,11.22.94,3.47,3.12,6.41,3.26,10.09a48.74,48.74,0,0,1-.06,5.67c-.14,1.89-.68,3.74-.84,5.63a44.84,44.84,0,0,1-3.08,12.31c-.78,2-1.81,3.85-2.67,5.8s-1.36,4.35-2.3,6.43c-.83,1.84,1.89,3.45,2.73,1.6Z" transform="translate(-45.7 -16.92)"/><path class="cls-1" d="M625.43,260.35c2,5.51,3.5,11.21,5.51,16.72s4.15,10.82,5.75,16.41c.79,2.76,1.76,5.46,2.8,8.14a40.82,40.82,0,0,0,3,6.85c1.29,2.09,2.85,3.93,4.06,6.09s3,4,4.17,6.22c1,1.8,3.69.21,2.73-1.59-1.1-2.07-2.72-3.79-3.92-5.79-.62-1-1.14-2.13-1.84-3.13s-1.5-1.92-2.18-2.94a34.94,34.94,0,0,1-3.14-7.1c-1-2.69-2-5.4-2.76-8.17-1.56-5.49-3.74-10.76-5.68-16.11s-3.41-11-5.41-16.44c-.7-1.9-3.76-1.08-3.05.84Z" transform="translate(-45.7 -16.92)"/></svg>