<?xml version="1.0" encoding="utf-8"?>
<!-- Generator: Adobe Illustrator 23.0.1, SVG Export Plug-In . SVG Version: 6.00 Build 0)  -->
<svg version="1.1" id="Layer_1" xmlns="http://www.w3.org/2000/svg" xmlns:xlink="http://www.w3.org/1999/xlink" x="0px" y="0px"
	 viewBox="0 0 500 500" style="enable-background:new 0 0 500 500;" xml:space="preserve">
<style type="text/css">
	.st0{fill:#191919;}
</style>
<path class="st0" d="M7.9,454.8l6.7-116.5c0.7-11.9,15.1-17.4,23.6-9l75.5,75.5c5.4,5.4,5.4,14.1,0,19.5c-5.4,5.4-14.1,5.4-19.5,0
	l-53.7-53.7l-4.9,85.7c-0.3,4.6,3.6,8.4,8.2,7.8c42.1-4.8,117.5-16.3,152.4-22.5l266-266c3.3-3.3,3.3-8.8,0-12.1L336.6,38.2
	c-3.3-3.3-8.8-3.3-12.1,0L100.2,262.4c-3.3,3.3-3.3,8.8,0,12.1l84.5,84.5c3.3,3.3,8.8,3.3,12.1,0l157.2-157.2
	c8.8-8.8,8.8-23.1,0-31.9l-25.6-25.6c-8.8-8.8-23.1-8.8-31.9,0l-99.9,99.9c-5.4,5.4-14.1,5.4-19.5,0c-5.4-5.4-5.4-14.1,0-19.5
	l99.9-99.9c19.6-19.6,51.4-19.6,71,0l25.6,25.6c19.6,19.6,19.6,51.4,0,71L216.4,378.6c-14.1,14.1-37.1,14.1-51.2,0L80.7,294
	c-14.1-14.1-14.1-37.1,0-51.2L304.9,18.6c14.1-14.1,37.1-14.1,51.2,0l125.5,125.5c14.1,14.1,14.1,37.1,0,51.2L212.5,464.4
	c-2,2-4.5,3.3-7.3,3.8c-32.6,5.9-112.4,18.3-158.4,23.5C25.2,494.2,6.6,476.5,7.9,454.8z"/>
</svg>
