<?xml version="1.0" encoding="utf-8"?>
<!-- Generator: Adobe Illustrator 23.0.1, SVG Export Plug-In . SVG Version: 6.00 Build 0)  -->
<svg version="1.1" id="Layer_1" xmlns="http://www.w3.org/2000/svg" xmlns:xlink="http://www.w3.org/1999/xlink" x="0px" y="0px"
	 viewBox="0 0 500 160" style="enable-background:new 0 0 500 160;" xml:space="preserve">
<style type="text/css">
	.st0{opacity:0.72;fill:#D9D9D8;}
	.st1{fill:#333333;}
</style>
<g>
	<g>
		<path class="st0" d="M260.1,70.7H142.9c-5.5,0-9.9-4.4-9.9-9.9v-7.2c0-5.5,4.4-9.9,9.9-9.9h117.2c5.5,0,9.9,4.4,9.9,9.9v7.2
			C270,66.2,265.6,70.7,260.1,70.7z"/>
		<path class="st0" d="M426.1,116.3H142.9c-5.5,0-9.9-4.4-9.9-9.9v-7.2c0-5.5,4.4-9.9,9.9-9.9h283.2c5.5,0,9.9,4.4,9.9,9.9v7.2
			C436,111.9,431.6,116.3,426.1,116.3z"/>
	</g>
	<path class="st1" d="M27.1,125.5h53c10.5,0,19-8.5,19-19v-53c0-10.5-8.5-19-19-19h-53c-10.5,0-19,8.5-19,19v53
		C8.1,117,16.6,125.5,27.1,125.5z"/>
</g>
</svg>
